G04 #@! TF.GenerationSoftware,KiCad,Pcbnew,(5.1.5)-3*
G04 #@! TF.CreationDate,2021-11-01T22:29:24-04:00*
G04 #@! TF.ProjectId,MakeNateAMillionDollars,4d616b65-4e61-4746-9541-4d696c6c696f,rev?*
G04 #@! TF.SameCoordinates,Original*
G04 #@! TF.FileFunction,Copper,L1,Top*
G04 #@! TF.FilePolarity,Positive*
%FSLAX46Y46*%
G04 Gerber Fmt 4.6, Leading zero omitted, Abs format (unit mm)*
G04 Created by KiCad (PCBNEW (5.1.5)-3) date 2021-11-01 22:29:24*
%MOMM*%
%LPD*%
G04 APERTURE LIST*
%ADD10O,1.350000X1.350000*%
%ADD11R,1.350000X1.350000*%
%ADD12R,1.750000X2.700000*%
%ADD13R,0.850000X0.300000*%
%ADD14C,0.100000*%
%ADD15C,0.800000*%
%ADD16C,0.250000*%
%ADD17C,0.254000*%
G04 APERTURE END LIST*
D10*
X146450000Y-95950000D03*
X148450000Y-95950000D03*
X150450000Y-95950000D03*
X152450000Y-95950000D03*
D11*
X154450000Y-95950000D03*
D12*
X150200000Y-100820000D03*
D13*
X151650000Y-99820000D03*
X151650000Y-100320000D03*
X151650000Y-100820000D03*
X151650000Y-101320000D03*
X151650000Y-101820000D03*
X148750000Y-101820000D03*
X148750000Y-101320000D03*
X148750000Y-100820000D03*
X148750000Y-100320000D03*
X148750000Y-99820000D03*
G04 #@! TA.AperFunction,SMDPad,CuDef*
D14*
G36*
X150377691Y-106101053D02*
G01*
X150398926Y-106104203D01*
X150419750Y-106109419D01*
X150439962Y-106116651D01*
X150459368Y-106125830D01*
X150477781Y-106136866D01*
X150495024Y-106149654D01*
X150510930Y-106164070D01*
X150525346Y-106179976D01*
X150538134Y-106197219D01*
X150549170Y-106215632D01*
X150558349Y-106235038D01*
X150565581Y-106255250D01*
X150570797Y-106276074D01*
X150573947Y-106297309D01*
X150575000Y-106318750D01*
X150575000Y-106756250D01*
X150573947Y-106777691D01*
X150570797Y-106798926D01*
X150565581Y-106819750D01*
X150558349Y-106839962D01*
X150549170Y-106859368D01*
X150538134Y-106877781D01*
X150525346Y-106895024D01*
X150510930Y-106910930D01*
X150495024Y-106925346D01*
X150477781Y-106938134D01*
X150459368Y-106949170D01*
X150439962Y-106958349D01*
X150419750Y-106965581D01*
X150398926Y-106970797D01*
X150377691Y-106973947D01*
X150356250Y-106975000D01*
X149843750Y-106975000D01*
X149822309Y-106973947D01*
X149801074Y-106970797D01*
X149780250Y-106965581D01*
X149760038Y-106958349D01*
X149740632Y-106949170D01*
X149722219Y-106938134D01*
X149704976Y-106925346D01*
X149689070Y-106910930D01*
X149674654Y-106895024D01*
X149661866Y-106877781D01*
X149650830Y-106859368D01*
X149641651Y-106839962D01*
X149634419Y-106819750D01*
X149629203Y-106798926D01*
X149626053Y-106777691D01*
X149625000Y-106756250D01*
X149625000Y-106318750D01*
X149626053Y-106297309D01*
X149629203Y-106276074D01*
X149634419Y-106255250D01*
X149641651Y-106235038D01*
X149650830Y-106215632D01*
X149661866Y-106197219D01*
X149674654Y-106179976D01*
X149689070Y-106164070D01*
X149704976Y-106149654D01*
X149722219Y-106136866D01*
X149740632Y-106125830D01*
X149760038Y-106116651D01*
X149780250Y-106109419D01*
X149801074Y-106104203D01*
X149822309Y-106101053D01*
X149843750Y-106100000D01*
X150356250Y-106100000D01*
X150377691Y-106101053D01*
G37*
G04 #@! TD.AperFunction*
G04 #@! TA.AperFunction,SMDPad,CuDef*
G36*
X150377691Y-104526053D02*
G01*
X150398926Y-104529203D01*
X150419750Y-104534419D01*
X150439962Y-104541651D01*
X150459368Y-104550830D01*
X150477781Y-104561866D01*
X150495024Y-104574654D01*
X150510930Y-104589070D01*
X150525346Y-104604976D01*
X150538134Y-104622219D01*
X150549170Y-104640632D01*
X150558349Y-104660038D01*
X150565581Y-104680250D01*
X150570797Y-104701074D01*
X150573947Y-104722309D01*
X150575000Y-104743750D01*
X150575000Y-105181250D01*
X150573947Y-105202691D01*
X150570797Y-105223926D01*
X150565581Y-105244750D01*
X150558349Y-105264962D01*
X150549170Y-105284368D01*
X150538134Y-105302781D01*
X150525346Y-105320024D01*
X150510930Y-105335930D01*
X150495024Y-105350346D01*
X150477781Y-105363134D01*
X150459368Y-105374170D01*
X150439962Y-105383349D01*
X150419750Y-105390581D01*
X150398926Y-105395797D01*
X150377691Y-105398947D01*
X150356250Y-105400000D01*
X149843750Y-105400000D01*
X149822309Y-105398947D01*
X149801074Y-105395797D01*
X149780250Y-105390581D01*
X149760038Y-105383349D01*
X149740632Y-105374170D01*
X149722219Y-105363134D01*
X149704976Y-105350346D01*
X149689070Y-105335930D01*
X149674654Y-105320024D01*
X149661866Y-105302781D01*
X149650830Y-105284368D01*
X149641651Y-105264962D01*
X149634419Y-105244750D01*
X149629203Y-105223926D01*
X149626053Y-105202691D01*
X149625000Y-105181250D01*
X149625000Y-104743750D01*
X149626053Y-104722309D01*
X149629203Y-104701074D01*
X149634419Y-104680250D01*
X149641651Y-104660038D01*
X149650830Y-104640632D01*
X149661866Y-104622219D01*
X149674654Y-104604976D01*
X149689070Y-104589070D01*
X149704976Y-104574654D01*
X149722219Y-104561866D01*
X149740632Y-104550830D01*
X149760038Y-104541651D01*
X149780250Y-104534419D01*
X149801074Y-104529203D01*
X149822309Y-104526053D01*
X149843750Y-104525000D01*
X150356250Y-104525000D01*
X150377691Y-104526053D01*
G37*
G04 #@! TD.AperFunction*
G04 #@! TA.AperFunction,SMDPad,CuDef*
G36*
X152427691Y-104526053D02*
G01*
X152448926Y-104529203D01*
X152469750Y-104534419D01*
X152489962Y-104541651D01*
X152509368Y-104550830D01*
X152527781Y-104561866D01*
X152545024Y-104574654D01*
X152560930Y-104589070D01*
X152575346Y-104604976D01*
X152588134Y-104622219D01*
X152599170Y-104640632D01*
X152608349Y-104660038D01*
X152615581Y-104680250D01*
X152620797Y-104701074D01*
X152623947Y-104722309D01*
X152625000Y-104743750D01*
X152625000Y-105181250D01*
X152623947Y-105202691D01*
X152620797Y-105223926D01*
X152615581Y-105244750D01*
X152608349Y-105264962D01*
X152599170Y-105284368D01*
X152588134Y-105302781D01*
X152575346Y-105320024D01*
X152560930Y-105335930D01*
X152545024Y-105350346D01*
X152527781Y-105363134D01*
X152509368Y-105374170D01*
X152489962Y-105383349D01*
X152469750Y-105390581D01*
X152448926Y-105395797D01*
X152427691Y-105398947D01*
X152406250Y-105400000D01*
X151893750Y-105400000D01*
X151872309Y-105398947D01*
X151851074Y-105395797D01*
X151830250Y-105390581D01*
X151810038Y-105383349D01*
X151790632Y-105374170D01*
X151772219Y-105363134D01*
X151754976Y-105350346D01*
X151739070Y-105335930D01*
X151724654Y-105320024D01*
X151711866Y-105302781D01*
X151700830Y-105284368D01*
X151691651Y-105264962D01*
X151684419Y-105244750D01*
X151679203Y-105223926D01*
X151676053Y-105202691D01*
X151675000Y-105181250D01*
X151675000Y-104743750D01*
X151676053Y-104722309D01*
X151679203Y-104701074D01*
X151684419Y-104680250D01*
X151691651Y-104660038D01*
X151700830Y-104640632D01*
X151711866Y-104622219D01*
X151724654Y-104604976D01*
X151739070Y-104589070D01*
X151754976Y-104574654D01*
X151772219Y-104561866D01*
X151790632Y-104550830D01*
X151810038Y-104541651D01*
X151830250Y-104534419D01*
X151851074Y-104529203D01*
X151872309Y-104526053D01*
X151893750Y-104525000D01*
X152406250Y-104525000D01*
X152427691Y-104526053D01*
G37*
G04 #@! TD.AperFunction*
G04 #@! TA.AperFunction,SMDPad,CuDef*
G36*
X152427691Y-106101053D02*
G01*
X152448926Y-106104203D01*
X152469750Y-106109419D01*
X152489962Y-106116651D01*
X152509368Y-106125830D01*
X152527781Y-106136866D01*
X152545024Y-106149654D01*
X152560930Y-106164070D01*
X152575346Y-106179976D01*
X152588134Y-106197219D01*
X152599170Y-106215632D01*
X152608349Y-106235038D01*
X152615581Y-106255250D01*
X152620797Y-106276074D01*
X152623947Y-106297309D01*
X152625000Y-106318750D01*
X152625000Y-106756250D01*
X152623947Y-106777691D01*
X152620797Y-106798926D01*
X152615581Y-106819750D01*
X152608349Y-106839962D01*
X152599170Y-106859368D01*
X152588134Y-106877781D01*
X152575346Y-106895024D01*
X152560930Y-106910930D01*
X152545024Y-106925346D01*
X152527781Y-106938134D01*
X152509368Y-106949170D01*
X152489962Y-106958349D01*
X152469750Y-106965581D01*
X152448926Y-106970797D01*
X152427691Y-106973947D01*
X152406250Y-106975000D01*
X151893750Y-106975000D01*
X151872309Y-106973947D01*
X151851074Y-106970797D01*
X151830250Y-106965581D01*
X151810038Y-106958349D01*
X151790632Y-106949170D01*
X151772219Y-106938134D01*
X151754976Y-106925346D01*
X151739070Y-106910930D01*
X151724654Y-106895024D01*
X151711866Y-106877781D01*
X151700830Y-106859368D01*
X151691651Y-106839962D01*
X151684419Y-106819750D01*
X151679203Y-106798926D01*
X151676053Y-106777691D01*
X151675000Y-106756250D01*
X151675000Y-106318750D01*
X151676053Y-106297309D01*
X151679203Y-106276074D01*
X151684419Y-106255250D01*
X151691651Y-106235038D01*
X151700830Y-106215632D01*
X151711866Y-106197219D01*
X151724654Y-106179976D01*
X151739070Y-106164070D01*
X151754976Y-106149654D01*
X151772219Y-106136866D01*
X151790632Y-106125830D01*
X151810038Y-106116651D01*
X151830250Y-106109419D01*
X151851074Y-106104203D01*
X151872309Y-106101053D01*
X151893750Y-106100000D01*
X152406250Y-106100000D01*
X152427691Y-106101053D01*
G37*
G04 #@! TD.AperFunction*
G04 #@! TA.AperFunction,SMDPad,CuDef*
G36*
X155452691Y-103276053D02*
G01*
X155473926Y-103279203D01*
X155494750Y-103284419D01*
X155514962Y-103291651D01*
X155534368Y-103300830D01*
X155552781Y-103311866D01*
X155570024Y-103324654D01*
X155585930Y-103339070D01*
X155600346Y-103354976D01*
X155613134Y-103372219D01*
X155624170Y-103390632D01*
X155633349Y-103410038D01*
X155640581Y-103430250D01*
X155645797Y-103451074D01*
X155648947Y-103472309D01*
X155650000Y-103493750D01*
X155650000Y-104006250D01*
X155648947Y-104027691D01*
X155645797Y-104048926D01*
X155640581Y-104069750D01*
X155633349Y-104089962D01*
X155624170Y-104109368D01*
X155613134Y-104127781D01*
X155600346Y-104145024D01*
X155585930Y-104160930D01*
X155570024Y-104175346D01*
X155552781Y-104188134D01*
X155534368Y-104199170D01*
X155514962Y-104208349D01*
X155494750Y-104215581D01*
X155473926Y-104220797D01*
X155452691Y-104223947D01*
X155431250Y-104225000D01*
X154993750Y-104225000D01*
X154972309Y-104223947D01*
X154951074Y-104220797D01*
X154930250Y-104215581D01*
X154910038Y-104208349D01*
X154890632Y-104199170D01*
X154872219Y-104188134D01*
X154854976Y-104175346D01*
X154839070Y-104160930D01*
X154824654Y-104145024D01*
X154811866Y-104127781D01*
X154800830Y-104109368D01*
X154791651Y-104089962D01*
X154784419Y-104069750D01*
X154779203Y-104048926D01*
X154776053Y-104027691D01*
X154775000Y-104006250D01*
X154775000Y-103493750D01*
X154776053Y-103472309D01*
X154779203Y-103451074D01*
X154784419Y-103430250D01*
X154791651Y-103410038D01*
X154800830Y-103390632D01*
X154811866Y-103372219D01*
X154824654Y-103354976D01*
X154839070Y-103339070D01*
X154854976Y-103324654D01*
X154872219Y-103311866D01*
X154890632Y-103300830D01*
X154910038Y-103291651D01*
X154930250Y-103284419D01*
X154951074Y-103279203D01*
X154972309Y-103276053D01*
X154993750Y-103275000D01*
X155431250Y-103275000D01*
X155452691Y-103276053D01*
G37*
G04 #@! TD.AperFunction*
G04 #@! TA.AperFunction,SMDPad,CuDef*
G36*
X157027691Y-103276053D02*
G01*
X157048926Y-103279203D01*
X157069750Y-103284419D01*
X157089962Y-103291651D01*
X157109368Y-103300830D01*
X157127781Y-103311866D01*
X157145024Y-103324654D01*
X157160930Y-103339070D01*
X157175346Y-103354976D01*
X157188134Y-103372219D01*
X157199170Y-103390632D01*
X157208349Y-103410038D01*
X157215581Y-103430250D01*
X157220797Y-103451074D01*
X157223947Y-103472309D01*
X157225000Y-103493750D01*
X157225000Y-104006250D01*
X157223947Y-104027691D01*
X157220797Y-104048926D01*
X157215581Y-104069750D01*
X157208349Y-104089962D01*
X157199170Y-104109368D01*
X157188134Y-104127781D01*
X157175346Y-104145024D01*
X157160930Y-104160930D01*
X157145024Y-104175346D01*
X157127781Y-104188134D01*
X157109368Y-104199170D01*
X157089962Y-104208349D01*
X157069750Y-104215581D01*
X157048926Y-104220797D01*
X157027691Y-104223947D01*
X157006250Y-104225000D01*
X156568750Y-104225000D01*
X156547309Y-104223947D01*
X156526074Y-104220797D01*
X156505250Y-104215581D01*
X156485038Y-104208349D01*
X156465632Y-104199170D01*
X156447219Y-104188134D01*
X156429976Y-104175346D01*
X156414070Y-104160930D01*
X156399654Y-104145024D01*
X156386866Y-104127781D01*
X156375830Y-104109368D01*
X156366651Y-104089962D01*
X156359419Y-104069750D01*
X156354203Y-104048926D01*
X156351053Y-104027691D01*
X156350000Y-104006250D01*
X156350000Y-103493750D01*
X156351053Y-103472309D01*
X156354203Y-103451074D01*
X156359419Y-103430250D01*
X156366651Y-103410038D01*
X156375830Y-103390632D01*
X156386866Y-103372219D01*
X156399654Y-103354976D01*
X156414070Y-103339070D01*
X156429976Y-103324654D01*
X156447219Y-103311866D01*
X156465632Y-103300830D01*
X156485038Y-103291651D01*
X156505250Y-103284419D01*
X156526074Y-103279203D01*
X156547309Y-103276053D01*
X156568750Y-103275000D01*
X157006250Y-103275000D01*
X157027691Y-103276053D01*
G37*
G04 #@! TD.AperFunction*
G04 #@! TA.AperFunction,SMDPad,CuDef*
G36*
X155452691Y-101276053D02*
G01*
X155473926Y-101279203D01*
X155494750Y-101284419D01*
X155514962Y-101291651D01*
X155534368Y-101300830D01*
X155552781Y-101311866D01*
X155570024Y-101324654D01*
X155585930Y-101339070D01*
X155600346Y-101354976D01*
X155613134Y-101372219D01*
X155624170Y-101390632D01*
X155633349Y-101410038D01*
X155640581Y-101430250D01*
X155645797Y-101451074D01*
X155648947Y-101472309D01*
X155650000Y-101493750D01*
X155650000Y-102006250D01*
X155648947Y-102027691D01*
X155645797Y-102048926D01*
X155640581Y-102069750D01*
X155633349Y-102089962D01*
X155624170Y-102109368D01*
X155613134Y-102127781D01*
X155600346Y-102145024D01*
X155585930Y-102160930D01*
X155570024Y-102175346D01*
X155552781Y-102188134D01*
X155534368Y-102199170D01*
X155514962Y-102208349D01*
X155494750Y-102215581D01*
X155473926Y-102220797D01*
X155452691Y-102223947D01*
X155431250Y-102225000D01*
X154993750Y-102225000D01*
X154972309Y-102223947D01*
X154951074Y-102220797D01*
X154930250Y-102215581D01*
X154910038Y-102208349D01*
X154890632Y-102199170D01*
X154872219Y-102188134D01*
X154854976Y-102175346D01*
X154839070Y-102160930D01*
X154824654Y-102145024D01*
X154811866Y-102127781D01*
X154800830Y-102109368D01*
X154791651Y-102089962D01*
X154784419Y-102069750D01*
X154779203Y-102048926D01*
X154776053Y-102027691D01*
X154775000Y-102006250D01*
X154775000Y-101493750D01*
X154776053Y-101472309D01*
X154779203Y-101451074D01*
X154784419Y-101430250D01*
X154791651Y-101410038D01*
X154800830Y-101390632D01*
X154811866Y-101372219D01*
X154824654Y-101354976D01*
X154839070Y-101339070D01*
X154854976Y-101324654D01*
X154872219Y-101311866D01*
X154890632Y-101300830D01*
X154910038Y-101291651D01*
X154930250Y-101284419D01*
X154951074Y-101279203D01*
X154972309Y-101276053D01*
X154993750Y-101275000D01*
X155431250Y-101275000D01*
X155452691Y-101276053D01*
G37*
G04 #@! TD.AperFunction*
G04 #@! TA.AperFunction,SMDPad,CuDef*
G36*
X157027691Y-101276053D02*
G01*
X157048926Y-101279203D01*
X157069750Y-101284419D01*
X157089962Y-101291651D01*
X157109368Y-101300830D01*
X157127781Y-101311866D01*
X157145024Y-101324654D01*
X157160930Y-101339070D01*
X157175346Y-101354976D01*
X157188134Y-101372219D01*
X157199170Y-101390632D01*
X157208349Y-101410038D01*
X157215581Y-101430250D01*
X157220797Y-101451074D01*
X157223947Y-101472309D01*
X157225000Y-101493750D01*
X157225000Y-102006250D01*
X157223947Y-102027691D01*
X157220797Y-102048926D01*
X157215581Y-102069750D01*
X157208349Y-102089962D01*
X157199170Y-102109368D01*
X157188134Y-102127781D01*
X157175346Y-102145024D01*
X157160930Y-102160930D01*
X157145024Y-102175346D01*
X157127781Y-102188134D01*
X157109368Y-102199170D01*
X157089962Y-102208349D01*
X157069750Y-102215581D01*
X157048926Y-102220797D01*
X157027691Y-102223947D01*
X157006250Y-102225000D01*
X156568750Y-102225000D01*
X156547309Y-102223947D01*
X156526074Y-102220797D01*
X156505250Y-102215581D01*
X156485038Y-102208349D01*
X156465632Y-102199170D01*
X156447219Y-102188134D01*
X156429976Y-102175346D01*
X156414070Y-102160930D01*
X156399654Y-102145024D01*
X156386866Y-102127781D01*
X156375830Y-102109368D01*
X156366651Y-102089962D01*
X156359419Y-102069750D01*
X156354203Y-102048926D01*
X156351053Y-102027691D01*
X156350000Y-102006250D01*
X156350000Y-101493750D01*
X156351053Y-101472309D01*
X156354203Y-101451074D01*
X156359419Y-101430250D01*
X156366651Y-101410038D01*
X156375830Y-101390632D01*
X156386866Y-101372219D01*
X156399654Y-101354976D01*
X156414070Y-101339070D01*
X156429976Y-101324654D01*
X156447219Y-101311866D01*
X156465632Y-101300830D01*
X156485038Y-101291651D01*
X156505250Y-101284419D01*
X156526074Y-101279203D01*
X156547309Y-101276053D01*
X156568750Y-101275000D01*
X157006250Y-101275000D01*
X157027691Y-101276053D01*
G37*
G04 #@! TD.AperFunction*
G04 #@! TA.AperFunction,SMDPad,CuDef*
G36*
X148227691Y-106101053D02*
G01*
X148248926Y-106104203D01*
X148269750Y-106109419D01*
X148289962Y-106116651D01*
X148309368Y-106125830D01*
X148327781Y-106136866D01*
X148345024Y-106149654D01*
X148360930Y-106164070D01*
X148375346Y-106179976D01*
X148388134Y-106197219D01*
X148399170Y-106215632D01*
X148408349Y-106235038D01*
X148415581Y-106255250D01*
X148420797Y-106276074D01*
X148423947Y-106297309D01*
X148425000Y-106318750D01*
X148425000Y-106756250D01*
X148423947Y-106777691D01*
X148420797Y-106798926D01*
X148415581Y-106819750D01*
X148408349Y-106839962D01*
X148399170Y-106859368D01*
X148388134Y-106877781D01*
X148375346Y-106895024D01*
X148360930Y-106910930D01*
X148345024Y-106925346D01*
X148327781Y-106938134D01*
X148309368Y-106949170D01*
X148289962Y-106958349D01*
X148269750Y-106965581D01*
X148248926Y-106970797D01*
X148227691Y-106973947D01*
X148206250Y-106975000D01*
X147693750Y-106975000D01*
X147672309Y-106973947D01*
X147651074Y-106970797D01*
X147630250Y-106965581D01*
X147610038Y-106958349D01*
X147590632Y-106949170D01*
X147572219Y-106938134D01*
X147554976Y-106925346D01*
X147539070Y-106910930D01*
X147524654Y-106895024D01*
X147511866Y-106877781D01*
X147500830Y-106859368D01*
X147491651Y-106839962D01*
X147484419Y-106819750D01*
X147479203Y-106798926D01*
X147476053Y-106777691D01*
X147475000Y-106756250D01*
X147475000Y-106318750D01*
X147476053Y-106297309D01*
X147479203Y-106276074D01*
X147484419Y-106255250D01*
X147491651Y-106235038D01*
X147500830Y-106215632D01*
X147511866Y-106197219D01*
X147524654Y-106179976D01*
X147539070Y-106164070D01*
X147554976Y-106149654D01*
X147572219Y-106136866D01*
X147590632Y-106125830D01*
X147610038Y-106116651D01*
X147630250Y-106109419D01*
X147651074Y-106104203D01*
X147672309Y-106101053D01*
X147693750Y-106100000D01*
X148206250Y-106100000D01*
X148227691Y-106101053D01*
G37*
G04 #@! TD.AperFunction*
G04 #@! TA.AperFunction,SMDPad,CuDef*
G36*
X148227691Y-104526053D02*
G01*
X148248926Y-104529203D01*
X148269750Y-104534419D01*
X148289962Y-104541651D01*
X148309368Y-104550830D01*
X148327781Y-104561866D01*
X148345024Y-104574654D01*
X148360930Y-104589070D01*
X148375346Y-104604976D01*
X148388134Y-104622219D01*
X148399170Y-104640632D01*
X148408349Y-104660038D01*
X148415581Y-104680250D01*
X148420797Y-104701074D01*
X148423947Y-104722309D01*
X148425000Y-104743750D01*
X148425000Y-105181250D01*
X148423947Y-105202691D01*
X148420797Y-105223926D01*
X148415581Y-105244750D01*
X148408349Y-105264962D01*
X148399170Y-105284368D01*
X148388134Y-105302781D01*
X148375346Y-105320024D01*
X148360930Y-105335930D01*
X148345024Y-105350346D01*
X148327781Y-105363134D01*
X148309368Y-105374170D01*
X148289962Y-105383349D01*
X148269750Y-105390581D01*
X148248926Y-105395797D01*
X148227691Y-105398947D01*
X148206250Y-105400000D01*
X147693750Y-105400000D01*
X147672309Y-105398947D01*
X147651074Y-105395797D01*
X147630250Y-105390581D01*
X147610038Y-105383349D01*
X147590632Y-105374170D01*
X147572219Y-105363134D01*
X147554976Y-105350346D01*
X147539070Y-105335930D01*
X147524654Y-105320024D01*
X147511866Y-105302781D01*
X147500830Y-105284368D01*
X147491651Y-105264962D01*
X147484419Y-105244750D01*
X147479203Y-105223926D01*
X147476053Y-105202691D01*
X147475000Y-105181250D01*
X147475000Y-104743750D01*
X147476053Y-104722309D01*
X147479203Y-104701074D01*
X147484419Y-104680250D01*
X147491651Y-104660038D01*
X147500830Y-104640632D01*
X147511866Y-104622219D01*
X147524654Y-104604976D01*
X147539070Y-104589070D01*
X147554976Y-104574654D01*
X147572219Y-104561866D01*
X147590632Y-104550830D01*
X147610038Y-104541651D01*
X147630250Y-104534419D01*
X147651074Y-104529203D01*
X147672309Y-104526053D01*
X147693750Y-104525000D01*
X148206250Y-104525000D01*
X148227691Y-104526053D01*
G37*
G04 #@! TD.AperFunction*
G04 #@! TA.AperFunction,SMDPad,CuDef*
G36*
X143502691Y-103376053D02*
G01*
X143523926Y-103379203D01*
X143544750Y-103384419D01*
X143564962Y-103391651D01*
X143584368Y-103400830D01*
X143602781Y-103411866D01*
X143620024Y-103424654D01*
X143635930Y-103439070D01*
X143650346Y-103454976D01*
X143663134Y-103472219D01*
X143674170Y-103490632D01*
X143683349Y-103510038D01*
X143690581Y-103530250D01*
X143695797Y-103551074D01*
X143698947Y-103572309D01*
X143700000Y-103593750D01*
X143700000Y-104106250D01*
X143698947Y-104127691D01*
X143695797Y-104148926D01*
X143690581Y-104169750D01*
X143683349Y-104189962D01*
X143674170Y-104209368D01*
X143663134Y-104227781D01*
X143650346Y-104245024D01*
X143635930Y-104260930D01*
X143620024Y-104275346D01*
X143602781Y-104288134D01*
X143584368Y-104299170D01*
X143564962Y-104308349D01*
X143544750Y-104315581D01*
X143523926Y-104320797D01*
X143502691Y-104323947D01*
X143481250Y-104325000D01*
X143043750Y-104325000D01*
X143022309Y-104323947D01*
X143001074Y-104320797D01*
X142980250Y-104315581D01*
X142960038Y-104308349D01*
X142940632Y-104299170D01*
X142922219Y-104288134D01*
X142904976Y-104275346D01*
X142889070Y-104260930D01*
X142874654Y-104245024D01*
X142861866Y-104227781D01*
X142850830Y-104209368D01*
X142841651Y-104189962D01*
X142834419Y-104169750D01*
X142829203Y-104148926D01*
X142826053Y-104127691D01*
X142825000Y-104106250D01*
X142825000Y-103593750D01*
X142826053Y-103572309D01*
X142829203Y-103551074D01*
X142834419Y-103530250D01*
X142841651Y-103510038D01*
X142850830Y-103490632D01*
X142861866Y-103472219D01*
X142874654Y-103454976D01*
X142889070Y-103439070D01*
X142904976Y-103424654D01*
X142922219Y-103411866D01*
X142940632Y-103400830D01*
X142960038Y-103391651D01*
X142980250Y-103384419D01*
X143001074Y-103379203D01*
X143022309Y-103376053D01*
X143043750Y-103375000D01*
X143481250Y-103375000D01*
X143502691Y-103376053D01*
G37*
G04 #@! TD.AperFunction*
G04 #@! TA.AperFunction,SMDPad,CuDef*
G36*
X145077691Y-103376053D02*
G01*
X145098926Y-103379203D01*
X145119750Y-103384419D01*
X145139962Y-103391651D01*
X145159368Y-103400830D01*
X145177781Y-103411866D01*
X145195024Y-103424654D01*
X145210930Y-103439070D01*
X145225346Y-103454976D01*
X145238134Y-103472219D01*
X145249170Y-103490632D01*
X145258349Y-103510038D01*
X145265581Y-103530250D01*
X145270797Y-103551074D01*
X145273947Y-103572309D01*
X145275000Y-103593750D01*
X145275000Y-104106250D01*
X145273947Y-104127691D01*
X145270797Y-104148926D01*
X145265581Y-104169750D01*
X145258349Y-104189962D01*
X145249170Y-104209368D01*
X145238134Y-104227781D01*
X145225346Y-104245024D01*
X145210930Y-104260930D01*
X145195024Y-104275346D01*
X145177781Y-104288134D01*
X145159368Y-104299170D01*
X145139962Y-104308349D01*
X145119750Y-104315581D01*
X145098926Y-104320797D01*
X145077691Y-104323947D01*
X145056250Y-104325000D01*
X144618750Y-104325000D01*
X144597309Y-104323947D01*
X144576074Y-104320797D01*
X144555250Y-104315581D01*
X144535038Y-104308349D01*
X144515632Y-104299170D01*
X144497219Y-104288134D01*
X144479976Y-104275346D01*
X144464070Y-104260930D01*
X144449654Y-104245024D01*
X144436866Y-104227781D01*
X144425830Y-104209368D01*
X144416651Y-104189962D01*
X144409419Y-104169750D01*
X144404203Y-104148926D01*
X144401053Y-104127691D01*
X144400000Y-104106250D01*
X144400000Y-103593750D01*
X144401053Y-103572309D01*
X144404203Y-103551074D01*
X144409419Y-103530250D01*
X144416651Y-103510038D01*
X144425830Y-103490632D01*
X144436866Y-103472219D01*
X144449654Y-103454976D01*
X144464070Y-103439070D01*
X144479976Y-103424654D01*
X144497219Y-103411866D01*
X144515632Y-103400830D01*
X144535038Y-103391651D01*
X144555250Y-103384419D01*
X144576074Y-103379203D01*
X144597309Y-103376053D01*
X144618750Y-103375000D01*
X145056250Y-103375000D01*
X145077691Y-103376053D01*
G37*
G04 #@! TD.AperFunction*
G04 #@! TA.AperFunction,SMDPad,CuDef*
G36*
X145077691Y-101326053D02*
G01*
X145098926Y-101329203D01*
X145119750Y-101334419D01*
X145139962Y-101341651D01*
X145159368Y-101350830D01*
X145177781Y-101361866D01*
X145195024Y-101374654D01*
X145210930Y-101389070D01*
X145225346Y-101404976D01*
X145238134Y-101422219D01*
X145249170Y-101440632D01*
X145258349Y-101460038D01*
X145265581Y-101480250D01*
X145270797Y-101501074D01*
X145273947Y-101522309D01*
X145275000Y-101543750D01*
X145275000Y-102056250D01*
X145273947Y-102077691D01*
X145270797Y-102098926D01*
X145265581Y-102119750D01*
X145258349Y-102139962D01*
X145249170Y-102159368D01*
X145238134Y-102177781D01*
X145225346Y-102195024D01*
X145210930Y-102210930D01*
X145195024Y-102225346D01*
X145177781Y-102238134D01*
X145159368Y-102249170D01*
X145139962Y-102258349D01*
X145119750Y-102265581D01*
X145098926Y-102270797D01*
X145077691Y-102273947D01*
X145056250Y-102275000D01*
X144618750Y-102275000D01*
X144597309Y-102273947D01*
X144576074Y-102270797D01*
X144555250Y-102265581D01*
X144535038Y-102258349D01*
X144515632Y-102249170D01*
X144497219Y-102238134D01*
X144479976Y-102225346D01*
X144464070Y-102210930D01*
X144449654Y-102195024D01*
X144436866Y-102177781D01*
X144425830Y-102159368D01*
X144416651Y-102139962D01*
X144409419Y-102119750D01*
X144404203Y-102098926D01*
X144401053Y-102077691D01*
X144400000Y-102056250D01*
X144400000Y-101543750D01*
X144401053Y-101522309D01*
X144404203Y-101501074D01*
X144409419Y-101480250D01*
X144416651Y-101460038D01*
X144425830Y-101440632D01*
X144436866Y-101422219D01*
X144449654Y-101404976D01*
X144464070Y-101389070D01*
X144479976Y-101374654D01*
X144497219Y-101361866D01*
X144515632Y-101350830D01*
X144535038Y-101341651D01*
X144555250Y-101334419D01*
X144576074Y-101329203D01*
X144597309Y-101326053D01*
X144618750Y-101325000D01*
X145056250Y-101325000D01*
X145077691Y-101326053D01*
G37*
G04 #@! TD.AperFunction*
G04 #@! TA.AperFunction,SMDPad,CuDef*
G36*
X143502691Y-101326053D02*
G01*
X143523926Y-101329203D01*
X143544750Y-101334419D01*
X143564962Y-101341651D01*
X143584368Y-101350830D01*
X143602781Y-101361866D01*
X143620024Y-101374654D01*
X143635930Y-101389070D01*
X143650346Y-101404976D01*
X143663134Y-101422219D01*
X143674170Y-101440632D01*
X143683349Y-101460038D01*
X143690581Y-101480250D01*
X143695797Y-101501074D01*
X143698947Y-101522309D01*
X143700000Y-101543750D01*
X143700000Y-102056250D01*
X143698947Y-102077691D01*
X143695797Y-102098926D01*
X143690581Y-102119750D01*
X143683349Y-102139962D01*
X143674170Y-102159368D01*
X143663134Y-102177781D01*
X143650346Y-102195024D01*
X143635930Y-102210930D01*
X143620024Y-102225346D01*
X143602781Y-102238134D01*
X143584368Y-102249170D01*
X143564962Y-102258349D01*
X143544750Y-102265581D01*
X143523926Y-102270797D01*
X143502691Y-102273947D01*
X143481250Y-102275000D01*
X143043750Y-102275000D01*
X143022309Y-102273947D01*
X143001074Y-102270797D01*
X142980250Y-102265581D01*
X142960038Y-102258349D01*
X142940632Y-102249170D01*
X142922219Y-102238134D01*
X142904976Y-102225346D01*
X142889070Y-102210930D01*
X142874654Y-102195024D01*
X142861866Y-102177781D01*
X142850830Y-102159368D01*
X142841651Y-102139962D01*
X142834419Y-102119750D01*
X142829203Y-102098926D01*
X142826053Y-102077691D01*
X142825000Y-102056250D01*
X142825000Y-101543750D01*
X142826053Y-101522309D01*
X142829203Y-101501074D01*
X142834419Y-101480250D01*
X142841651Y-101460038D01*
X142850830Y-101440632D01*
X142861866Y-101422219D01*
X142874654Y-101404976D01*
X142889070Y-101389070D01*
X142904976Y-101374654D01*
X142922219Y-101361866D01*
X142940632Y-101350830D01*
X142960038Y-101341651D01*
X142980250Y-101334419D01*
X143001074Y-101329203D01*
X143022309Y-101326053D01*
X143043750Y-101325000D01*
X143481250Y-101325000D01*
X143502691Y-101326053D01*
G37*
G04 #@! TD.AperFunction*
G04 #@! TA.AperFunction,SMDPad,CuDef*
G36*
X143502691Y-99326053D02*
G01*
X143523926Y-99329203D01*
X143544750Y-99334419D01*
X143564962Y-99341651D01*
X143584368Y-99350830D01*
X143602781Y-99361866D01*
X143620024Y-99374654D01*
X143635930Y-99389070D01*
X143650346Y-99404976D01*
X143663134Y-99422219D01*
X143674170Y-99440632D01*
X143683349Y-99460038D01*
X143690581Y-99480250D01*
X143695797Y-99501074D01*
X143698947Y-99522309D01*
X143700000Y-99543750D01*
X143700000Y-100056250D01*
X143698947Y-100077691D01*
X143695797Y-100098926D01*
X143690581Y-100119750D01*
X143683349Y-100139962D01*
X143674170Y-100159368D01*
X143663134Y-100177781D01*
X143650346Y-100195024D01*
X143635930Y-100210930D01*
X143620024Y-100225346D01*
X143602781Y-100238134D01*
X143584368Y-100249170D01*
X143564962Y-100258349D01*
X143544750Y-100265581D01*
X143523926Y-100270797D01*
X143502691Y-100273947D01*
X143481250Y-100275000D01*
X143043750Y-100275000D01*
X143022309Y-100273947D01*
X143001074Y-100270797D01*
X142980250Y-100265581D01*
X142960038Y-100258349D01*
X142940632Y-100249170D01*
X142922219Y-100238134D01*
X142904976Y-100225346D01*
X142889070Y-100210930D01*
X142874654Y-100195024D01*
X142861866Y-100177781D01*
X142850830Y-100159368D01*
X142841651Y-100139962D01*
X142834419Y-100119750D01*
X142829203Y-100098926D01*
X142826053Y-100077691D01*
X142825000Y-100056250D01*
X142825000Y-99543750D01*
X142826053Y-99522309D01*
X142829203Y-99501074D01*
X142834419Y-99480250D01*
X142841651Y-99460038D01*
X142850830Y-99440632D01*
X142861866Y-99422219D01*
X142874654Y-99404976D01*
X142889070Y-99389070D01*
X142904976Y-99374654D01*
X142922219Y-99361866D01*
X142940632Y-99350830D01*
X142960038Y-99341651D01*
X142980250Y-99334419D01*
X143001074Y-99329203D01*
X143022309Y-99326053D01*
X143043750Y-99325000D01*
X143481250Y-99325000D01*
X143502691Y-99326053D01*
G37*
G04 #@! TD.AperFunction*
G04 #@! TA.AperFunction,SMDPad,CuDef*
G36*
X145077691Y-99326053D02*
G01*
X145098926Y-99329203D01*
X145119750Y-99334419D01*
X145139962Y-99341651D01*
X145159368Y-99350830D01*
X145177781Y-99361866D01*
X145195024Y-99374654D01*
X145210930Y-99389070D01*
X145225346Y-99404976D01*
X145238134Y-99422219D01*
X145249170Y-99440632D01*
X145258349Y-99460038D01*
X145265581Y-99480250D01*
X145270797Y-99501074D01*
X145273947Y-99522309D01*
X145275000Y-99543750D01*
X145275000Y-100056250D01*
X145273947Y-100077691D01*
X145270797Y-100098926D01*
X145265581Y-100119750D01*
X145258349Y-100139962D01*
X145249170Y-100159368D01*
X145238134Y-100177781D01*
X145225346Y-100195024D01*
X145210930Y-100210930D01*
X145195024Y-100225346D01*
X145177781Y-100238134D01*
X145159368Y-100249170D01*
X145139962Y-100258349D01*
X145119750Y-100265581D01*
X145098926Y-100270797D01*
X145077691Y-100273947D01*
X145056250Y-100275000D01*
X144618750Y-100275000D01*
X144597309Y-100273947D01*
X144576074Y-100270797D01*
X144555250Y-100265581D01*
X144535038Y-100258349D01*
X144515632Y-100249170D01*
X144497219Y-100238134D01*
X144479976Y-100225346D01*
X144464070Y-100210930D01*
X144449654Y-100195024D01*
X144436866Y-100177781D01*
X144425830Y-100159368D01*
X144416651Y-100139962D01*
X144409419Y-100119750D01*
X144404203Y-100098926D01*
X144401053Y-100077691D01*
X144400000Y-100056250D01*
X144400000Y-99543750D01*
X144401053Y-99522309D01*
X144404203Y-99501074D01*
X144409419Y-99480250D01*
X144416651Y-99460038D01*
X144425830Y-99440632D01*
X144436866Y-99422219D01*
X144449654Y-99404976D01*
X144464070Y-99389070D01*
X144479976Y-99374654D01*
X144497219Y-99361866D01*
X144515632Y-99350830D01*
X144535038Y-99341651D01*
X144555250Y-99334419D01*
X144576074Y-99329203D01*
X144597309Y-99326053D01*
X144618750Y-99325000D01*
X145056250Y-99325000D01*
X145077691Y-99326053D01*
G37*
G04 #@! TD.AperFunction*
D15*
X143000000Y-105250000D03*
X149250000Y-103500000D03*
X143000000Y-98500000D03*
X146425153Y-101675153D03*
X146500000Y-103000000D03*
D16*
X149250000Y-104065685D02*
X149250000Y-103500000D01*
X149250000Y-106162500D02*
X149250000Y-104065685D01*
X149625000Y-106537500D02*
X149250000Y-106162500D01*
X150100000Y-106537500D02*
X149625000Y-106537500D01*
X143262500Y-104987500D02*
X143000000Y-105250000D01*
X143262500Y-103850000D02*
X143262500Y-104987500D01*
X143262500Y-98762500D02*
X143000000Y-98500000D01*
X143262500Y-99800000D02*
X143262500Y-98762500D01*
X148750000Y-100820000D02*
X147280306Y-100820000D01*
X147280306Y-100820000D02*
X146425153Y-101675153D01*
X148730000Y-99800000D02*
X148750000Y-99820000D01*
X144837500Y-99800000D02*
X148730000Y-99800000D01*
X144837500Y-103850000D02*
X144837500Y-101800000D01*
X145275000Y-101800000D02*
X146755000Y-100320000D01*
X148075000Y-100320000D02*
X148750000Y-100320000D01*
X146755000Y-100320000D02*
X148075000Y-100320000D01*
X144837500Y-101800000D02*
X145275000Y-101800000D01*
X151720000Y-100820000D02*
X151744999Y-100844999D01*
X151650000Y-100820000D02*
X151720000Y-100820000D01*
X151650000Y-100820000D02*
X152270000Y-100820000D01*
X152319990Y-100869990D02*
X153519990Y-100869990D01*
X152270000Y-100820000D02*
X152319990Y-100869990D01*
X154400000Y-101750000D02*
X155212500Y-101750000D01*
X153519990Y-100869990D02*
X154400000Y-101750000D01*
X155212500Y-101275000D02*
X152687500Y-98750000D01*
X155212500Y-101750000D02*
X155212500Y-101275000D01*
X152687500Y-98750000D02*
X151350000Y-98750000D01*
X150450000Y-97850000D02*
X150450000Y-95950000D01*
X151350000Y-98750000D02*
X150450000Y-97850000D01*
X155212500Y-103275000D02*
X155212500Y-103750000D01*
X153257500Y-101320000D02*
X155212500Y-103275000D01*
X151650000Y-101320000D02*
X153257500Y-101320000D01*
X155606494Y-100900000D02*
X155473910Y-100900000D01*
X155975010Y-101268516D02*
X155606494Y-100900000D01*
X155212500Y-103275000D02*
X155975010Y-102512490D01*
X155975010Y-102512490D02*
X155975010Y-101268516D01*
X152450000Y-97876090D02*
X152450000Y-95950000D01*
X155473910Y-100900000D02*
X152450000Y-97876090D01*
X152150000Y-102320000D02*
X151650000Y-101820000D01*
X152150000Y-104962500D02*
X152150000Y-102320000D01*
X150100000Y-104962500D02*
X152150000Y-104962500D01*
X148725001Y-101344999D02*
X148750000Y-101320000D01*
X148075000Y-101320000D02*
X148750000Y-101320000D01*
X147930000Y-101320000D02*
X148075000Y-101320000D01*
X146899999Y-102350001D02*
X147930000Y-101320000D01*
X146899999Y-102600001D02*
X146899999Y-102350001D01*
X146500000Y-103000000D02*
X146899999Y-102600001D01*
X147950000Y-104450000D02*
X146500000Y-103000000D01*
X147950000Y-104962500D02*
X147950000Y-104450000D01*
D17*
G36*
X159315001Y-108565000D02*
G01*
X141185000Y-108565000D01*
X141185000Y-106975000D01*
X146836928Y-106975000D01*
X146849188Y-107099482D01*
X146885498Y-107219180D01*
X146944463Y-107329494D01*
X147023815Y-107426185D01*
X147120506Y-107505537D01*
X147230820Y-107564502D01*
X147350518Y-107600812D01*
X147475000Y-107613072D01*
X147664250Y-107610000D01*
X147823000Y-107451250D01*
X147823000Y-106664500D01*
X146998750Y-106664500D01*
X146840000Y-106823250D01*
X146836928Y-106975000D01*
X141185000Y-106975000D01*
X141185000Y-98398061D01*
X141965000Y-98398061D01*
X141965000Y-98601939D01*
X142004774Y-98801898D01*
X142082795Y-98990256D01*
X142196063Y-99159774D01*
X142252149Y-99215860D01*
X142203392Y-99376592D01*
X142186928Y-99543750D01*
X142186928Y-100056250D01*
X142203392Y-100223408D01*
X142252150Y-100384142D01*
X142331329Y-100532275D01*
X142437885Y-100662115D01*
X142548412Y-100752821D01*
X142470506Y-100794463D01*
X142373815Y-100873815D01*
X142294463Y-100970506D01*
X142235498Y-101080820D01*
X142199188Y-101200518D01*
X142186928Y-101325000D01*
X142190000Y-101514250D01*
X142348750Y-101673000D01*
X143135500Y-101673000D01*
X143135500Y-101653000D01*
X143389500Y-101653000D01*
X143389500Y-101673000D01*
X143409500Y-101673000D01*
X143409500Y-101927000D01*
X143389500Y-101927000D01*
X143389500Y-101947000D01*
X143135500Y-101947000D01*
X143135500Y-101927000D01*
X142348750Y-101927000D01*
X142190000Y-102085750D01*
X142186928Y-102275000D01*
X142199188Y-102399482D01*
X142235498Y-102519180D01*
X142294463Y-102629494D01*
X142373815Y-102726185D01*
X142470506Y-102805537D01*
X142580820Y-102864502D01*
X142592549Y-102868060D01*
X142567725Y-102881329D01*
X142437885Y-102987885D01*
X142331329Y-103117725D01*
X142252150Y-103265858D01*
X142203392Y-103426592D01*
X142186928Y-103593750D01*
X142186928Y-104106250D01*
X142203392Y-104273408D01*
X142252150Y-104434142D01*
X142286982Y-104499307D01*
X142196063Y-104590226D01*
X142082795Y-104759744D01*
X142004774Y-104948102D01*
X141965000Y-105148061D01*
X141965000Y-105351939D01*
X142004774Y-105551898D01*
X142082795Y-105740256D01*
X142196063Y-105909774D01*
X142340226Y-106053937D01*
X142509744Y-106167205D01*
X142698102Y-106245226D01*
X142898061Y-106285000D01*
X143101939Y-106285000D01*
X143301898Y-106245226D01*
X143490256Y-106167205D01*
X143659774Y-106053937D01*
X143803937Y-105909774D01*
X143917205Y-105740256D01*
X143995226Y-105551898D01*
X144035000Y-105351939D01*
X144035000Y-105148061D01*
X144018522Y-105065220D01*
X144022500Y-105024833D01*
X144022500Y-105024824D01*
X144026176Y-104987501D01*
X144022500Y-104950178D01*
X144022500Y-104765143D01*
X144050000Y-104742574D01*
X144142725Y-104818671D01*
X144290858Y-104897850D01*
X144451592Y-104946608D01*
X144618750Y-104963072D01*
X145056250Y-104963072D01*
X145223408Y-104946608D01*
X145384142Y-104897850D01*
X145532275Y-104818671D01*
X145662115Y-104712115D01*
X145768671Y-104582275D01*
X145847850Y-104434142D01*
X145896608Y-104273408D01*
X145913072Y-104106250D01*
X145913072Y-103852611D01*
X146009744Y-103917205D01*
X146198102Y-103995226D01*
X146398061Y-104035000D01*
X146460199Y-104035000D01*
X146887931Y-104462732D01*
X146853392Y-104576592D01*
X146836928Y-104743750D01*
X146836928Y-105181250D01*
X146853392Y-105348408D01*
X146902150Y-105509142D01*
X146981329Y-105657275D01*
X146999100Y-105678930D01*
X146944463Y-105745506D01*
X146885498Y-105855820D01*
X146849188Y-105975518D01*
X146836928Y-106100000D01*
X146840000Y-106251750D01*
X146998750Y-106410500D01*
X147823000Y-106410500D01*
X147823000Y-106390500D01*
X148077000Y-106390500D01*
X148077000Y-106410500D01*
X148097000Y-106410500D01*
X148097000Y-106664500D01*
X148077000Y-106664500D01*
X148077000Y-107451250D01*
X148235750Y-107610000D01*
X148425000Y-107613072D01*
X148549482Y-107600812D01*
X148669180Y-107564502D01*
X148779494Y-107505537D01*
X148876185Y-107426185D01*
X148955537Y-107329494D01*
X149014502Y-107219180D01*
X149050812Y-107099482D01*
X149052296Y-107084415D01*
X149131329Y-107232275D01*
X149237885Y-107362115D01*
X149367725Y-107468671D01*
X149515858Y-107547850D01*
X149676592Y-107596608D01*
X149843750Y-107613072D01*
X150356250Y-107613072D01*
X150523408Y-107596608D01*
X150684142Y-107547850D01*
X150832275Y-107468671D01*
X150962115Y-107362115D01*
X151068671Y-107232275D01*
X151081940Y-107207451D01*
X151085498Y-107219180D01*
X151144463Y-107329494D01*
X151223815Y-107426185D01*
X151320506Y-107505537D01*
X151430820Y-107564502D01*
X151550518Y-107600812D01*
X151675000Y-107613072D01*
X151864250Y-107610000D01*
X152023000Y-107451250D01*
X152023000Y-106664500D01*
X152277000Y-106664500D01*
X152277000Y-107451250D01*
X152435750Y-107610000D01*
X152625000Y-107613072D01*
X152749482Y-107600812D01*
X152869180Y-107564502D01*
X152979494Y-107505537D01*
X153076185Y-107426185D01*
X153155537Y-107329494D01*
X153214502Y-107219180D01*
X153250812Y-107099482D01*
X153263072Y-106975000D01*
X153260000Y-106823250D01*
X153101250Y-106664500D01*
X152277000Y-106664500D01*
X152023000Y-106664500D01*
X152003000Y-106664500D01*
X152003000Y-106410500D01*
X152023000Y-106410500D01*
X152023000Y-106390500D01*
X152277000Y-106390500D01*
X152277000Y-106410500D01*
X153101250Y-106410500D01*
X153260000Y-106251750D01*
X153263072Y-106100000D01*
X153250812Y-105975518D01*
X153214502Y-105855820D01*
X153155537Y-105745506D01*
X153100900Y-105678930D01*
X153118671Y-105657275D01*
X153197850Y-105509142D01*
X153246608Y-105348408D01*
X153263072Y-105181250D01*
X153263072Y-104743750D01*
X153246608Y-104576592D01*
X153197850Y-104415858D01*
X153118671Y-104267725D01*
X153012115Y-104137885D01*
X152910000Y-104054082D01*
X152910000Y-102357325D01*
X152913676Y-102320000D01*
X152910000Y-102282675D01*
X152910000Y-102282667D01*
X152899003Y-102171014D01*
X152871395Y-102080000D01*
X152942699Y-102080000D01*
X154161747Y-103299049D01*
X154153392Y-103326592D01*
X154136928Y-103493750D01*
X154136928Y-104006250D01*
X154153392Y-104173408D01*
X154202150Y-104334142D01*
X154281329Y-104482275D01*
X154387885Y-104612115D01*
X154517725Y-104718671D01*
X154665858Y-104797850D01*
X154826592Y-104846608D01*
X154993750Y-104863072D01*
X155431250Y-104863072D01*
X155598408Y-104846608D01*
X155759142Y-104797850D01*
X155907275Y-104718671D01*
X155928930Y-104700900D01*
X155995506Y-104755537D01*
X156105820Y-104814502D01*
X156225518Y-104850812D01*
X156350000Y-104863072D01*
X156501750Y-104860000D01*
X156660500Y-104701250D01*
X156660500Y-103877000D01*
X156914500Y-103877000D01*
X156914500Y-104701250D01*
X157073250Y-104860000D01*
X157225000Y-104863072D01*
X157349482Y-104850812D01*
X157469180Y-104814502D01*
X157579494Y-104755537D01*
X157676185Y-104676185D01*
X157755537Y-104579494D01*
X157814502Y-104469180D01*
X157850812Y-104349482D01*
X157863072Y-104225000D01*
X157860000Y-104035750D01*
X157701250Y-103877000D01*
X156914500Y-103877000D01*
X156660500Y-103877000D01*
X156640500Y-103877000D01*
X156640500Y-103623000D01*
X156660500Y-103623000D01*
X156660500Y-102842259D01*
X156680556Y-102804737D01*
X156683675Y-102794454D01*
X156724013Y-102661476D01*
X156735010Y-102549823D01*
X156735010Y-102549813D01*
X156738686Y-102512490D01*
X156735010Y-102475168D01*
X156735010Y-101877000D01*
X156914500Y-101877000D01*
X156914500Y-102701250D01*
X156963250Y-102750000D01*
X156914500Y-102798750D01*
X156914500Y-103623000D01*
X157701250Y-103623000D01*
X157860000Y-103464250D01*
X157863072Y-103275000D01*
X157850812Y-103150518D01*
X157814502Y-103030820D01*
X157755537Y-102920506D01*
X157676185Y-102823815D01*
X157586241Y-102750000D01*
X157676185Y-102676185D01*
X157755537Y-102579494D01*
X157814502Y-102469180D01*
X157850812Y-102349482D01*
X157863072Y-102225000D01*
X157860000Y-102035750D01*
X157701250Y-101877000D01*
X156914500Y-101877000D01*
X156735010Y-101877000D01*
X156735010Y-101305838D01*
X156738686Y-101268515D01*
X156735010Y-101231192D01*
X156735010Y-101231183D01*
X156724013Y-101119530D01*
X156680556Y-100976269D01*
X156660500Y-100938747D01*
X156660500Y-100798750D01*
X156914500Y-100798750D01*
X156914500Y-101623000D01*
X157701250Y-101623000D01*
X157860000Y-101464250D01*
X157863072Y-101275000D01*
X157850812Y-101150518D01*
X157814502Y-101030820D01*
X157755537Y-100920506D01*
X157676185Y-100823815D01*
X157579494Y-100744463D01*
X157469180Y-100685498D01*
X157349482Y-100649188D01*
X157225000Y-100636928D01*
X157073250Y-100640000D01*
X156914500Y-100798750D01*
X156660500Y-100798750D01*
X156501750Y-100640000D01*
X156419633Y-100638338D01*
X156170298Y-100389003D01*
X156146495Y-100359999D01*
X156030770Y-100265026D01*
X155898741Y-100194454D01*
X155818967Y-100170255D01*
X153210000Y-97561289D01*
X153210000Y-97017709D01*
X153252513Y-96989303D01*
X153323815Y-97076185D01*
X153420506Y-97155537D01*
X153530820Y-97214502D01*
X153650518Y-97250812D01*
X153775000Y-97263072D01*
X154164250Y-97260000D01*
X154323000Y-97101250D01*
X154323000Y-96077000D01*
X154577000Y-96077000D01*
X154577000Y-97101250D01*
X154735750Y-97260000D01*
X155125000Y-97263072D01*
X155249482Y-97250812D01*
X155369180Y-97214502D01*
X155479494Y-97155537D01*
X155576185Y-97076185D01*
X155655537Y-96979494D01*
X155714502Y-96869180D01*
X155750812Y-96749482D01*
X155763072Y-96625000D01*
X155760000Y-96235750D01*
X155601250Y-96077000D01*
X154577000Y-96077000D01*
X154323000Y-96077000D01*
X154303000Y-96077000D01*
X154303000Y-95823000D01*
X154323000Y-95823000D01*
X154323000Y-94798750D01*
X154577000Y-94798750D01*
X154577000Y-95823000D01*
X155601250Y-95823000D01*
X155760000Y-95664250D01*
X155763072Y-95275000D01*
X155750812Y-95150518D01*
X155714502Y-95030820D01*
X155655537Y-94920506D01*
X155576185Y-94823815D01*
X155479494Y-94744463D01*
X155369180Y-94685498D01*
X155249482Y-94649188D01*
X155125000Y-94636928D01*
X154735750Y-94640000D01*
X154577000Y-94798750D01*
X154323000Y-94798750D01*
X154164250Y-94640000D01*
X153775000Y-94636928D01*
X153650518Y-94649188D01*
X153530820Y-94685498D01*
X153420506Y-94744463D01*
X153323815Y-94823815D01*
X153252513Y-94910697D01*
X153070518Y-94789093D01*
X152832113Y-94690342D01*
X152579024Y-94640000D01*
X152320976Y-94640000D01*
X152067887Y-94690342D01*
X151829482Y-94789093D01*
X151614923Y-94932456D01*
X151450000Y-95097379D01*
X151285077Y-94932456D01*
X151070518Y-94789093D01*
X150832113Y-94690342D01*
X150579024Y-94640000D01*
X150320976Y-94640000D01*
X150067887Y-94690342D01*
X149829482Y-94789093D01*
X149614923Y-94932456D01*
X149450000Y-95097379D01*
X149285077Y-94932456D01*
X149070518Y-94789093D01*
X148832113Y-94690342D01*
X148579024Y-94640000D01*
X148320976Y-94640000D01*
X148067887Y-94690342D01*
X147829482Y-94789093D01*
X147614923Y-94932456D01*
X147450000Y-95097379D01*
X147285077Y-94932456D01*
X147070518Y-94789093D01*
X146832113Y-94690342D01*
X146579024Y-94640000D01*
X146320976Y-94640000D01*
X146067887Y-94690342D01*
X145829482Y-94789093D01*
X145614923Y-94932456D01*
X145432456Y-95114923D01*
X145289093Y-95329482D01*
X145190342Y-95567887D01*
X145140000Y-95820976D01*
X145140000Y-96079024D01*
X145190342Y-96332113D01*
X145289093Y-96570518D01*
X145432456Y-96785077D01*
X145614923Y-96967544D01*
X145829482Y-97110907D01*
X146067887Y-97209658D01*
X146320976Y-97260000D01*
X146579024Y-97260000D01*
X146832113Y-97209658D01*
X147070518Y-97110907D01*
X147285077Y-96967544D01*
X147450000Y-96802621D01*
X147614923Y-96967544D01*
X147829482Y-97110907D01*
X148067887Y-97209658D01*
X148320976Y-97260000D01*
X148579024Y-97260000D01*
X148832113Y-97209658D01*
X149070518Y-97110907D01*
X149285077Y-96967544D01*
X149450000Y-96802621D01*
X149614923Y-96967544D01*
X149690000Y-97017709D01*
X149690000Y-97812677D01*
X149686324Y-97850000D01*
X149690000Y-97887322D01*
X149690000Y-97887332D01*
X149700997Y-97998985D01*
X149736197Y-98115026D01*
X149744454Y-98142246D01*
X149815026Y-98274276D01*
X149836437Y-98300365D01*
X149909999Y-98390001D01*
X149939002Y-98413803D01*
X150357127Y-98831928D01*
X149325000Y-98831928D01*
X149200518Y-98844188D01*
X149080820Y-98880498D01*
X148970506Y-98939463D01*
X148873815Y-99018815D01*
X148794463Y-99115506D01*
X148735498Y-99225820D01*
X148699188Y-99345518D01*
X148686928Y-99470000D01*
X148686928Y-99531928D01*
X148623000Y-99531928D01*
X148623000Y-99193750D01*
X148464250Y-99035000D01*
X148338639Y-99032074D01*
X148213924Y-99041670D01*
X148093477Y-99075414D01*
X147981928Y-99132006D01*
X147883562Y-99209274D01*
X147802161Y-99304247D01*
X147740853Y-99413275D01*
X147701992Y-99532170D01*
X147698846Y-99560000D01*
X146792322Y-99560000D01*
X146754999Y-99556324D01*
X146717676Y-99560000D01*
X146717667Y-99560000D01*
X146606014Y-99570997D01*
X146462753Y-99614454D01*
X146330723Y-99685026D01*
X146247083Y-99753668D01*
X146214999Y-99779999D01*
X146191201Y-99808997D01*
X145910071Y-100090127D01*
X145910000Y-100085750D01*
X145751250Y-99927000D01*
X144964500Y-99927000D01*
X144964500Y-99947000D01*
X144710500Y-99947000D01*
X144710500Y-99927000D01*
X144690500Y-99927000D01*
X144690500Y-99673000D01*
X144710500Y-99673000D01*
X144710500Y-98848750D01*
X144964500Y-98848750D01*
X144964500Y-99673000D01*
X145751250Y-99673000D01*
X145910000Y-99514250D01*
X145913072Y-99325000D01*
X145900812Y-99200518D01*
X145864502Y-99080820D01*
X145805537Y-98970506D01*
X145726185Y-98873815D01*
X145629494Y-98794463D01*
X145519180Y-98735498D01*
X145399482Y-98699188D01*
X145275000Y-98686928D01*
X145123250Y-98690000D01*
X144964500Y-98848750D01*
X144710500Y-98848750D01*
X144551750Y-98690000D01*
X144400000Y-98686928D01*
X144275518Y-98699188D01*
X144155820Y-98735498D01*
X144045506Y-98794463D01*
X144022500Y-98813343D01*
X144022500Y-98799822D01*
X144026176Y-98762499D01*
X144022500Y-98725176D01*
X144022500Y-98725167D01*
X144018522Y-98684780D01*
X144035000Y-98601939D01*
X144035000Y-98398061D01*
X143995226Y-98198102D01*
X143917205Y-98009744D01*
X143803937Y-97840226D01*
X143659774Y-97696063D01*
X143490256Y-97582795D01*
X143301898Y-97504774D01*
X143101939Y-97465000D01*
X142898061Y-97465000D01*
X142698102Y-97504774D01*
X142509744Y-97582795D01*
X142340226Y-97696063D01*
X142196063Y-97840226D01*
X142082795Y-98009744D01*
X142004774Y-98198102D01*
X141965000Y-98398061D01*
X141185000Y-98398061D01*
X141185000Y-93935000D01*
X159315000Y-93935000D01*
X159315001Y-108565000D01*
G37*
X159315001Y-108565000D02*
X141185000Y-108565000D01*
X141185000Y-106975000D01*
X146836928Y-106975000D01*
X146849188Y-107099482D01*
X146885498Y-107219180D01*
X146944463Y-107329494D01*
X147023815Y-107426185D01*
X147120506Y-107505537D01*
X147230820Y-107564502D01*
X147350518Y-107600812D01*
X147475000Y-107613072D01*
X147664250Y-107610000D01*
X147823000Y-107451250D01*
X147823000Y-106664500D01*
X146998750Y-106664500D01*
X146840000Y-106823250D01*
X146836928Y-106975000D01*
X141185000Y-106975000D01*
X141185000Y-98398061D01*
X141965000Y-98398061D01*
X141965000Y-98601939D01*
X142004774Y-98801898D01*
X142082795Y-98990256D01*
X142196063Y-99159774D01*
X142252149Y-99215860D01*
X142203392Y-99376592D01*
X142186928Y-99543750D01*
X142186928Y-100056250D01*
X142203392Y-100223408D01*
X142252150Y-100384142D01*
X142331329Y-100532275D01*
X142437885Y-100662115D01*
X142548412Y-100752821D01*
X142470506Y-100794463D01*
X142373815Y-100873815D01*
X142294463Y-100970506D01*
X142235498Y-101080820D01*
X142199188Y-101200518D01*
X142186928Y-101325000D01*
X142190000Y-101514250D01*
X142348750Y-101673000D01*
X143135500Y-101673000D01*
X143135500Y-101653000D01*
X143389500Y-101653000D01*
X143389500Y-101673000D01*
X143409500Y-101673000D01*
X143409500Y-101927000D01*
X143389500Y-101927000D01*
X143389500Y-101947000D01*
X143135500Y-101947000D01*
X143135500Y-101927000D01*
X142348750Y-101927000D01*
X142190000Y-102085750D01*
X142186928Y-102275000D01*
X142199188Y-102399482D01*
X142235498Y-102519180D01*
X142294463Y-102629494D01*
X142373815Y-102726185D01*
X142470506Y-102805537D01*
X142580820Y-102864502D01*
X142592549Y-102868060D01*
X142567725Y-102881329D01*
X142437885Y-102987885D01*
X142331329Y-103117725D01*
X142252150Y-103265858D01*
X142203392Y-103426592D01*
X142186928Y-103593750D01*
X142186928Y-104106250D01*
X142203392Y-104273408D01*
X142252150Y-104434142D01*
X142286982Y-104499307D01*
X142196063Y-104590226D01*
X142082795Y-104759744D01*
X142004774Y-104948102D01*
X141965000Y-105148061D01*
X141965000Y-105351939D01*
X142004774Y-105551898D01*
X142082795Y-105740256D01*
X142196063Y-105909774D01*
X142340226Y-106053937D01*
X142509744Y-106167205D01*
X142698102Y-106245226D01*
X142898061Y-106285000D01*
X143101939Y-106285000D01*
X143301898Y-106245226D01*
X143490256Y-106167205D01*
X143659774Y-106053937D01*
X143803937Y-105909774D01*
X143917205Y-105740256D01*
X143995226Y-105551898D01*
X144035000Y-105351939D01*
X144035000Y-105148061D01*
X144018522Y-105065220D01*
X144022500Y-105024833D01*
X144022500Y-105024824D01*
X144026176Y-104987501D01*
X144022500Y-104950178D01*
X144022500Y-104765143D01*
X144050000Y-104742574D01*
X144142725Y-104818671D01*
X144290858Y-104897850D01*
X144451592Y-104946608D01*
X144618750Y-104963072D01*
X145056250Y-104963072D01*
X145223408Y-104946608D01*
X145384142Y-104897850D01*
X145532275Y-104818671D01*
X145662115Y-104712115D01*
X145768671Y-104582275D01*
X145847850Y-104434142D01*
X145896608Y-104273408D01*
X145913072Y-104106250D01*
X145913072Y-103852611D01*
X146009744Y-103917205D01*
X146198102Y-103995226D01*
X146398061Y-104035000D01*
X146460199Y-104035000D01*
X146887931Y-104462732D01*
X146853392Y-104576592D01*
X146836928Y-104743750D01*
X146836928Y-105181250D01*
X146853392Y-105348408D01*
X146902150Y-105509142D01*
X146981329Y-105657275D01*
X146999100Y-105678930D01*
X146944463Y-105745506D01*
X146885498Y-105855820D01*
X146849188Y-105975518D01*
X146836928Y-106100000D01*
X146840000Y-106251750D01*
X146998750Y-106410500D01*
X147823000Y-106410500D01*
X147823000Y-106390500D01*
X148077000Y-106390500D01*
X148077000Y-106410500D01*
X148097000Y-106410500D01*
X148097000Y-106664500D01*
X148077000Y-106664500D01*
X148077000Y-107451250D01*
X148235750Y-107610000D01*
X148425000Y-107613072D01*
X148549482Y-107600812D01*
X148669180Y-107564502D01*
X148779494Y-107505537D01*
X148876185Y-107426185D01*
X148955537Y-107329494D01*
X149014502Y-107219180D01*
X149050812Y-107099482D01*
X149052296Y-107084415D01*
X149131329Y-107232275D01*
X149237885Y-107362115D01*
X149367725Y-107468671D01*
X149515858Y-107547850D01*
X149676592Y-107596608D01*
X149843750Y-107613072D01*
X150356250Y-107613072D01*
X150523408Y-107596608D01*
X150684142Y-107547850D01*
X150832275Y-107468671D01*
X150962115Y-107362115D01*
X151068671Y-107232275D01*
X151081940Y-107207451D01*
X151085498Y-107219180D01*
X151144463Y-107329494D01*
X151223815Y-107426185D01*
X151320506Y-107505537D01*
X151430820Y-107564502D01*
X151550518Y-107600812D01*
X151675000Y-107613072D01*
X151864250Y-107610000D01*
X152023000Y-107451250D01*
X152023000Y-106664500D01*
X152277000Y-106664500D01*
X152277000Y-107451250D01*
X152435750Y-107610000D01*
X152625000Y-107613072D01*
X152749482Y-107600812D01*
X152869180Y-107564502D01*
X152979494Y-107505537D01*
X153076185Y-107426185D01*
X153155537Y-107329494D01*
X153214502Y-107219180D01*
X153250812Y-107099482D01*
X153263072Y-106975000D01*
X153260000Y-106823250D01*
X153101250Y-106664500D01*
X152277000Y-106664500D01*
X152023000Y-106664500D01*
X152003000Y-106664500D01*
X152003000Y-106410500D01*
X152023000Y-106410500D01*
X152023000Y-106390500D01*
X152277000Y-106390500D01*
X152277000Y-106410500D01*
X153101250Y-106410500D01*
X153260000Y-106251750D01*
X153263072Y-106100000D01*
X153250812Y-105975518D01*
X153214502Y-105855820D01*
X153155537Y-105745506D01*
X153100900Y-105678930D01*
X153118671Y-105657275D01*
X153197850Y-105509142D01*
X153246608Y-105348408D01*
X153263072Y-105181250D01*
X153263072Y-104743750D01*
X153246608Y-104576592D01*
X153197850Y-104415858D01*
X153118671Y-104267725D01*
X153012115Y-104137885D01*
X152910000Y-104054082D01*
X152910000Y-102357325D01*
X152913676Y-102320000D01*
X152910000Y-102282675D01*
X152910000Y-102282667D01*
X152899003Y-102171014D01*
X152871395Y-102080000D01*
X152942699Y-102080000D01*
X154161747Y-103299049D01*
X154153392Y-103326592D01*
X154136928Y-103493750D01*
X154136928Y-104006250D01*
X154153392Y-104173408D01*
X154202150Y-104334142D01*
X154281329Y-104482275D01*
X154387885Y-104612115D01*
X154517725Y-104718671D01*
X154665858Y-104797850D01*
X154826592Y-104846608D01*
X154993750Y-104863072D01*
X155431250Y-104863072D01*
X155598408Y-104846608D01*
X155759142Y-104797850D01*
X155907275Y-104718671D01*
X155928930Y-104700900D01*
X155995506Y-104755537D01*
X156105820Y-104814502D01*
X156225518Y-104850812D01*
X156350000Y-104863072D01*
X156501750Y-104860000D01*
X156660500Y-104701250D01*
X156660500Y-103877000D01*
X156914500Y-103877000D01*
X156914500Y-104701250D01*
X157073250Y-104860000D01*
X157225000Y-104863072D01*
X157349482Y-104850812D01*
X157469180Y-104814502D01*
X157579494Y-104755537D01*
X157676185Y-104676185D01*
X157755537Y-104579494D01*
X157814502Y-104469180D01*
X157850812Y-104349482D01*
X157863072Y-104225000D01*
X157860000Y-104035750D01*
X157701250Y-103877000D01*
X156914500Y-103877000D01*
X156660500Y-103877000D01*
X156640500Y-103877000D01*
X156640500Y-103623000D01*
X156660500Y-103623000D01*
X156660500Y-102842259D01*
X156680556Y-102804737D01*
X156683675Y-102794454D01*
X156724013Y-102661476D01*
X156735010Y-102549823D01*
X156735010Y-102549813D01*
X156738686Y-102512490D01*
X156735010Y-102475168D01*
X156735010Y-101877000D01*
X156914500Y-101877000D01*
X156914500Y-102701250D01*
X156963250Y-102750000D01*
X156914500Y-102798750D01*
X156914500Y-103623000D01*
X157701250Y-103623000D01*
X157860000Y-103464250D01*
X157863072Y-103275000D01*
X157850812Y-103150518D01*
X157814502Y-103030820D01*
X157755537Y-102920506D01*
X157676185Y-102823815D01*
X157586241Y-102750000D01*
X157676185Y-102676185D01*
X157755537Y-102579494D01*
X157814502Y-102469180D01*
X157850812Y-102349482D01*
X157863072Y-102225000D01*
X157860000Y-102035750D01*
X157701250Y-101877000D01*
X156914500Y-101877000D01*
X156735010Y-101877000D01*
X156735010Y-101305838D01*
X156738686Y-101268515D01*
X156735010Y-101231192D01*
X156735010Y-101231183D01*
X156724013Y-101119530D01*
X156680556Y-100976269D01*
X156660500Y-100938747D01*
X156660500Y-100798750D01*
X156914500Y-100798750D01*
X156914500Y-101623000D01*
X157701250Y-101623000D01*
X157860000Y-101464250D01*
X157863072Y-101275000D01*
X157850812Y-101150518D01*
X157814502Y-101030820D01*
X157755537Y-100920506D01*
X157676185Y-100823815D01*
X157579494Y-100744463D01*
X157469180Y-100685498D01*
X157349482Y-100649188D01*
X157225000Y-100636928D01*
X157073250Y-100640000D01*
X156914500Y-100798750D01*
X156660500Y-100798750D01*
X156501750Y-100640000D01*
X156419633Y-100638338D01*
X156170298Y-100389003D01*
X156146495Y-100359999D01*
X156030770Y-100265026D01*
X155898741Y-100194454D01*
X155818967Y-100170255D01*
X153210000Y-97561289D01*
X153210000Y-97017709D01*
X153252513Y-96989303D01*
X153323815Y-97076185D01*
X153420506Y-97155537D01*
X153530820Y-97214502D01*
X153650518Y-97250812D01*
X153775000Y-97263072D01*
X154164250Y-97260000D01*
X154323000Y-97101250D01*
X154323000Y-96077000D01*
X154577000Y-96077000D01*
X154577000Y-97101250D01*
X154735750Y-97260000D01*
X155125000Y-97263072D01*
X155249482Y-97250812D01*
X155369180Y-97214502D01*
X155479494Y-97155537D01*
X155576185Y-97076185D01*
X155655537Y-96979494D01*
X155714502Y-96869180D01*
X155750812Y-96749482D01*
X155763072Y-96625000D01*
X155760000Y-96235750D01*
X155601250Y-96077000D01*
X154577000Y-96077000D01*
X154323000Y-96077000D01*
X154303000Y-96077000D01*
X154303000Y-95823000D01*
X154323000Y-95823000D01*
X154323000Y-94798750D01*
X154577000Y-94798750D01*
X154577000Y-95823000D01*
X155601250Y-95823000D01*
X155760000Y-95664250D01*
X155763072Y-95275000D01*
X155750812Y-95150518D01*
X155714502Y-95030820D01*
X155655537Y-94920506D01*
X155576185Y-94823815D01*
X155479494Y-94744463D01*
X155369180Y-94685498D01*
X155249482Y-94649188D01*
X155125000Y-94636928D01*
X154735750Y-94640000D01*
X154577000Y-94798750D01*
X154323000Y-94798750D01*
X154164250Y-94640000D01*
X153775000Y-94636928D01*
X153650518Y-94649188D01*
X153530820Y-94685498D01*
X153420506Y-94744463D01*
X153323815Y-94823815D01*
X153252513Y-94910697D01*
X153070518Y-94789093D01*
X152832113Y-94690342D01*
X152579024Y-94640000D01*
X152320976Y-94640000D01*
X152067887Y-94690342D01*
X151829482Y-94789093D01*
X151614923Y-94932456D01*
X151450000Y-95097379D01*
X151285077Y-94932456D01*
X151070518Y-94789093D01*
X150832113Y-94690342D01*
X150579024Y-94640000D01*
X150320976Y-94640000D01*
X150067887Y-94690342D01*
X149829482Y-94789093D01*
X149614923Y-94932456D01*
X149450000Y-95097379D01*
X149285077Y-94932456D01*
X149070518Y-94789093D01*
X148832113Y-94690342D01*
X148579024Y-94640000D01*
X148320976Y-94640000D01*
X148067887Y-94690342D01*
X147829482Y-94789093D01*
X147614923Y-94932456D01*
X147450000Y-95097379D01*
X147285077Y-94932456D01*
X147070518Y-94789093D01*
X146832113Y-94690342D01*
X146579024Y-94640000D01*
X146320976Y-94640000D01*
X146067887Y-94690342D01*
X145829482Y-94789093D01*
X145614923Y-94932456D01*
X145432456Y-95114923D01*
X145289093Y-95329482D01*
X145190342Y-95567887D01*
X145140000Y-95820976D01*
X145140000Y-96079024D01*
X145190342Y-96332113D01*
X145289093Y-96570518D01*
X145432456Y-96785077D01*
X145614923Y-96967544D01*
X145829482Y-97110907D01*
X146067887Y-97209658D01*
X146320976Y-97260000D01*
X146579024Y-97260000D01*
X146832113Y-97209658D01*
X147070518Y-97110907D01*
X147285077Y-96967544D01*
X147450000Y-96802621D01*
X147614923Y-96967544D01*
X147829482Y-97110907D01*
X148067887Y-97209658D01*
X148320976Y-97260000D01*
X148579024Y-97260000D01*
X148832113Y-97209658D01*
X149070518Y-97110907D01*
X149285077Y-96967544D01*
X149450000Y-96802621D01*
X149614923Y-96967544D01*
X149690000Y-97017709D01*
X149690000Y-97812677D01*
X149686324Y-97850000D01*
X149690000Y-97887322D01*
X149690000Y-97887332D01*
X149700997Y-97998985D01*
X149736197Y-98115026D01*
X149744454Y-98142246D01*
X149815026Y-98274276D01*
X149836437Y-98300365D01*
X149909999Y-98390001D01*
X149939002Y-98413803D01*
X150357127Y-98831928D01*
X149325000Y-98831928D01*
X149200518Y-98844188D01*
X149080820Y-98880498D01*
X148970506Y-98939463D01*
X148873815Y-99018815D01*
X148794463Y-99115506D01*
X148735498Y-99225820D01*
X148699188Y-99345518D01*
X148686928Y-99470000D01*
X148686928Y-99531928D01*
X148623000Y-99531928D01*
X148623000Y-99193750D01*
X148464250Y-99035000D01*
X148338639Y-99032074D01*
X148213924Y-99041670D01*
X148093477Y-99075414D01*
X147981928Y-99132006D01*
X147883562Y-99209274D01*
X147802161Y-99304247D01*
X147740853Y-99413275D01*
X147701992Y-99532170D01*
X147698846Y-99560000D01*
X146792322Y-99560000D01*
X146754999Y-99556324D01*
X146717676Y-99560000D01*
X146717667Y-99560000D01*
X146606014Y-99570997D01*
X146462753Y-99614454D01*
X146330723Y-99685026D01*
X146247083Y-99753668D01*
X146214999Y-99779999D01*
X146191201Y-99808997D01*
X145910071Y-100090127D01*
X145910000Y-100085750D01*
X145751250Y-99927000D01*
X144964500Y-99927000D01*
X144964500Y-99947000D01*
X144710500Y-99947000D01*
X144710500Y-99927000D01*
X144690500Y-99927000D01*
X144690500Y-99673000D01*
X144710500Y-99673000D01*
X144710500Y-98848750D01*
X144964500Y-98848750D01*
X144964500Y-99673000D01*
X145751250Y-99673000D01*
X145910000Y-99514250D01*
X145913072Y-99325000D01*
X145900812Y-99200518D01*
X145864502Y-99080820D01*
X145805537Y-98970506D01*
X145726185Y-98873815D01*
X145629494Y-98794463D01*
X145519180Y-98735498D01*
X145399482Y-98699188D01*
X145275000Y-98686928D01*
X145123250Y-98690000D01*
X144964500Y-98848750D01*
X144710500Y-98848750D01*
X144551750Y-98690000D01*
X144400000Y-98686928D01*
X144275518Y-98699188D01*
X144155820Y-98735498D01*
X144045506Y-98794463D01*
X144022500Y-98813343D01*
X144022500Y-98799822D01*
X144026176Y-98762499D01*
X144022500Y-98725176D01*
X144022500Y-98725167D01*
X144018522Y-98684780D01*
X144035000Y-98601939D01*
X144035000Y-98398061D01*
X143995226Y-98198102D01*
X143917205Y-98009744D01*
X143803937Y-97840226D01*
X143659774Y-97696063D01*
X143490256Y-97582795D01*
X143301898Y-97504774D01*
X143101939Y-97465000D01*
X142898061Y-97465000D01*
X142698102Y-97504774D01*
X142509744Y-97582795D01*
X142340226Y-97696063D01*
X142196063Y-97840226D01*
X142082795Y-98009744D01*
X142004774Y-98198102D01*
X141965000Y-98398061D01*
X141185000Y-98398061D01*
X141185000Y-93935000D01*
X159315000Y-93935000D01*
X159315001Y-108565000D01*
M02*
