G04 #@! TF.GenerationSoftware,KiCad,Pcbnew,(5.1.5)-3*
G04 #@! TF.CreationDate,2021-11-01T22:29:24-04:00*
G04 #@! TF.ProjectId,MakeNateAMillionDollars,4d616b65-4e61-4746-9541-4d696c6c696f,rev?*
G04 #@! TF.SameCoordinates,Original*
G04 #@! TF.FileFunction,Legend,Top*
G04 #@! TF.FilePolarity,Positive*
%FSLAX46Y46*%
G04 Gerber Fmt 4.6, Leading zero omitted, Abs format (unit mm)*
G04 Created by KiCad (PCBNEW (5.1.5)-3) date 2021-11-01 22:29:24*
%MOMM*%
%LPD*%
G04 APERTURE LIST*
%ADD10C,0.120000*%
%ADD11C,0.150000*%
G04 APERTURE END LIST*
D10*
X155510000Y-94890000D02*
X155510000Y-95950000D01*
X154450000Y-94890000D02*
X155510000Y-94890000D01*
X153450000Y-94890000D02*
X153450000Y-97010000D01*
X153450000Y-97010000D02*
X145390000Y-97010000D01*
X153450000Y-94890000D02*
X145390000Y-94890000D01*
X145390000Y-94890000D02*
X145390000Y-97010000D01*
X148700000Y-102440000D02*
X151700000Y-102440000D01*
X148325000Y-99200000D02*
X151700000Y-99200000D01*
X149590000Y-105587221D02*
X149590000Y-105912779D01*
X150610000Y-105587221D02*
X150610000Y-105912779D01*
X152660000Y-105912779D02*
X152660000Y-105587221D01*
X151640000Y-105912779D02*
X151640000Y-105587221D01*
X156162779Y-103240000D02*
X155837221Y-103240000D01*
X156162779Y-104260000D02*
X155837221Y-104260000D01*
X156162779Y-101240000D02*
X155837221Y-101240000D01*
X156162779Y-102260000D02*
X155837221Y-102260000D01*
X147440000Y-105587221D02*
X147440000Y-105912779D01*
X148460000Y-105587221D02*
X148460000Y-105912779D01*
X144212779Y-103340000D02*
X143887221Y-103340000D01*
X144212779Y-104360000D02*
X143887221Y-104360000D01*
X143887221Y-102310000D02*
X144212779Y-102310000D01*
X143887221Y-101290000D02*
X144212779Y-101290000D01*
X144212779Y-99290000D02*
X143887221Y-99290000D01*
X144212779Y-100310000D02*
X143887221Y-100310000D01*
D11*
X149438095Y-97797380D02*
X149438095Y-98606904D01*
X149485714Y-98702142D01*
X149533333Y-98749761D01*
X149628571Y-98797380D01*
X149819047Y-98797380D01*
X149914285Y-98749761D01*
X149961904Y-98702142D01*
X150009523Y-98606904D01*
X150009523Y-97797380D01*
X151009523Y-98797380D02*
X150438095Y-98797380D01*
X150723809Y-98797380D02*
X150723809Y-97797380D01*
X150628571Y-97940238D01*
X150533333Y-98035476D01*
X150438095Y-98083095D01*
X149833333Y-108452380D02*
X149500000Y-107976190D01*
X149261904Y-108452380D02*
X149261904Y-107452380D01*
X149642857Y-107452380D01*
X149738095Y-107500000D01*
X149785714Y-107547619D01*
X149833333Y-107642857D01*
X149833333Y-107785714D01*
X149785714Y-107880952D01*
X149738095Y-107928571D01*
X149642857Y-107976190D01*
X149261904Y-107976190D01*
X150166666Y-107452380D02*
X150833333Y-107452380D01*
X150404761Y-108452380D01*
X152083333Y-108452380D02*
X151750000Y-107976190D01*
X151511904Y-108452380D02*
X151511904Y-107452380D01*
X151892857Y-107452380D01*
X151988095Y-107500000D01*
X152035714Y-107547619D01*
X152083333Y-107642857D01*
X152083333Y-107785714D01*
X152035714Y-107880952D01*
X151988095Y-107928571D01*
X151892857Y-107976190D01*
X151511904Y-107976190D01*
X152940476Y-107452380D02*
X152750000Y-107452380D01*
X152654761Y-107500000D01*
X152607142Y-107547619D01*
X152511904Y-107690476D01*
X152464285Y-107880952D01*
X152464285Y-108261904D01*
X152511904Y-108357142D01*
X152559523Y-108404761D01*
X152654761Y-108452380D01*
X152845238Y-108452380D01*
X152940476Y-108404761D01*
X152988095Y-108357142D01*
X153035714Y-108261904D01*
X153035714Y-108023809D01*
X152988095Y-107928571D01*
X152940476Y-107880952D01*
X152845238Y-107833333D01*
X152654761Y-107833333D01*
X152559523Y-107880952D01*
X152511904Y-107928571D01*
X152464285Y-108023809D01*
X158952380Y-104166666D02*
X158476190Y-104500000D01*
X158952380Y-104738095D02*
X157952380Y-104738095D01*
X157952380Y-104357142D01*
X158000000Y-104261904D01*
X158047619Y-104214285D01*
X158142857Y-104166666D01*
X158285714Y-104166666D01*
X158380952Y-104214285D01*
X158428571Y-104261904D01*
X158476190Y-104357142D01*
X158476190Y-104738095D01*
X157952380Y-103261904D02*
X157952380Y-103738095D01*
X158428571Y-103785714D01*
X158380952Y-103738095D01*
X158333333Y-103642857D01*
X158333333Y-103404761D01*
X158380952Y-103309523D01*
X158428571Y-103261904D01*
X158523809Y-103214285D01*
X158761904Y-103214285D01*
X158857142Y-103261904D01*
X158904761Y-103309523D01*
X158952380Y-103404761D01*
X158952380Y-103642857D01*
X158904761Y-103738095D01*
X158857142Y-103785714D01*
X158952380Y-101666666D02*
X158476190Y-102000000D01*
X158952380Y-102238095D02*
X157952380Y-102238095D01*
X157952380Y-101857142D01*
X158000000Y-101761904D01*
X158047619Y-101714285D01*
X158142857Y-101666666D01*
X158285714Y-101666666D01*
X158380952Y-101714285D01*
X158428571Y-101761904D01*
X158476190Y-101857142D01*
X158476190Y-102238095D01*
X158285714Y-100809523D02*
X158952380Y-100809523D01*
X157904761Y-101047619D02*
X158619047Y-101285714D01*
X158619047Y-100666666D01*
X147583333Y-108452380D02*
X147250000Y-107976190D01*
X147011904Y-108452380D02*
X147011904Y-107452380D01*
X147392857Y-107452380D01*
X147488095Y-107500000D01*
X147535714Y-107547619D01*
X147583333Y-107642857D01*
X147583333Y-107785714D01*
X147535714Y-107880952D01*
X147488095Y-107928571D01*
X147392857Y-107976190D01*
X147011904Y-107976190D01*
X147916666Y-107452380D02*
X148535714Y-107452380D01*
X148202380Y-107833333D01*
X148345238Y-107833333D01*
X148440476Y-107880952D01*
X148488095Y-107928571D01*
X148535714Y-108023809D01*
X148535714Y-108261904D01*
X148488095Y-108357142D01*
X148440476Y-108404761D01*
X148345238Y-108452380D01*
X148059523Y-108452380D01*
X147964285Y-108404761D01*
X147916666Y-108357142D01*
X142202380Y-104166666D02*
X141726190Y-104500000D01*
X142202380Y-104738095D02*
X141202380Y-104738095D01*
X141202380Y-104357142D01*
X141250000Y-104261904D01*
X141297619Y-104214285D01*
X141392857Y-104166666D01*
X141535714Y-104166666D01*
X141630952Y-104214285D01*
X141678571Y-104261904D01*
X141726190Y-104357142D01*
X141726190Y-104738095D01*
X141297619Y-103785714D02*
X141250000Y-103738095D01*
X141202380Y-103642857D01*
X141202380Y-103404761D01*
X141250000Y-103309523D01*
X141297619Y-103261904D01*
X141392857Y-103214285D01*
X141488095Y-103214285D01*
X141630952Y-103261904D01*
X142202380Y-103833333D01*
X142202380Y-103214285D01*
X142202380Y-101916666D02*
X141726190Y-102250000D01*
X142202380Y-102488095D02*
X141202380Y-102488095D01*
X141202380Y-102107142D01*
X141250000Y-102011904D01*
X141297619Y-101964285D01*
X141392857Y-101916666D01*
X141535714Y-101916666D01*
X141630952Y-101964285D01*
X141678571Y-102011904D01*
X141726190Y-102107142D01*
X141726190Y-102488095D01*
X142202380Y-100964285D02*
X142202380Y-101535714D01*
X142202380Y-101250000D02*
X141202380Y-101250000D01*
X141345238Y-101345238D01*
X141440476Y-101440476D01*
X141488095Y-101535714D01*
X142107142Y-99916666D02*
X142154761Y-99964285D01*
X142202380Y-100107142D01*
X142202380Y-100202380D01*
X142154761Y-100345238D01*
X142059523Y-100440476D01*
X141964285Y-100488095D01*
X141773809Y-100535714D01*
X141630952Y-100535714D01*
X141440476Y-100488095D01*
X141345238Y-100440476D01*
X141250000Y-100345238D01*
X141202380Y-100202380D01*
X141202380Y-100107142D01*
X141250000Y-99964285D01*
X141297619Y-99916666D01*
X142202380Y-98964285D02*
X142202380Y-99535714D01*
X142202380Y-99250000D02*
X141202380Y-99250000D01*
X141345238Y-99345238D01*
X141440476Y-99440476D01*
X141488095Y-99535714D01*
M02*
