G04 #@! TF.GenerationSoftware,KiCad,Pcbnew,(5.1.5)-3*
G04 #@! TF.CreationDate,2021-11-01T22:29:24-04:00*
G04 #@! TF.ProjectId,MakeNateAMillionDollars,4d616b65-4e61-4746-9541-4d696c6c696f,rev?*
G04 #@! TF.SameCoordinates,Original*
G04 #@! TF.FileFunction,Paste,Top*
G04 #@! TF.FilePolarity,Positive*
%FSLAX46Y46*%
G04 Gerber Fmt 4.6, Leading zero omitted, Abs format (unit mm)*
G04 Created by KiCad (PCBNEW (5.1.5)-3) date 2021-11-01 22:29:24*
%MOMM*%
%LPD*%
G04 APERTURE LIST*
%ADD10R,0.600000X1.050000*%
%ADD11R,0.850000X0.300000*%
%ADD12C,0.100000*%
G04 APERTURE END LIST*
D10*
X150587500Y-101440000D03*
X150587500Y-100200000D03*
X149812500Y-101440000D03*
X149812500Y-100200000D03*
D11*
X151650000Y-99820000D03*
X151650000Y-100320000D03*
X151650000Y-100820000D03*
X151650000Y-101320000D03*
X151650000Y-101820000D03*
X148750000Y-101820000D03*
X148750000Y-101320000D03*
X148750000Y-100820000D03*
X148750000Y-100320000D03*
X148750000Y-99820000D03*
D12*
G36*
X150377691Y-106101053D02*
G01*
X150398926Y-106104203D01*
X150419750Y-106109419D01*
X150439962Y-106116651D01*
X150459368Y-106125830D01*
X150477781Y-106136866D01*
X150495024Y-106149654D01*
X150510930Y-106164070D01*
X150525346Y-106179976D01*
X150538134Y-106197219D01*
X150549170Y-106215632D01*
X150558349Y-106235038D01*
X150565581Y-106255250D01*
X150570797Y-106276074D01*
X150573947Y-106297309D01*
X150575000Y-106318750D01*
X150575000Y-106756250D01*
X150573947Y-106777691D01*
X150570797Y-106798926D01*
X150565581Y-106819750D01*
X150558349Y-106839962D01*
X150549170Y-106859368D01*
X150538134Y-106877781D01*
X150525346Y-106895024D01*
X150510930Y-106910930D01*
X150495024Y-106925346D01*
X150477781Y-106938134D01*
X150459368Y-106949170D01*
X150439962Y-106958349D01*
X150419750Y-106965581D01*
X150398926Y-106970797D01*
X150377691Y-106973947D01*
X150356250Y-106975000D01*
X149843750Y-106975000D01*
X149822309Y-106973947D01*
X149801074Y-106970797D01*
X149780250Y-106965581D01*
X149760038Y-106958349D01*
X149740632Y-106949170D01*
X149722219Y-106938134D01*
X149704976Y-106925346D01*
X149689070Y-106910930D01*
X149674654Y-106895024D01*
X149661866Y-106877781D01*
X149650830Y-106859368D01*
X149641651Y-106839962D01*
X149634419Y-106819750D01*
X149629203Y-106798926D01*
X149626053Y-106777691D01*
X149625000Y-106756250D01*
X149625000Y-106318750D01*
X149626053Y-106297309D01*
X149629203Y-106276074D01*
X149634419Y-106255250D01*
X149641651Y-106235038D01*
X149650830Y-106215632D01*
X149661866Y-106197219D01*
X149674654Y-106179976D01*
X149689070Y-106164070D01*
X149704976Y-106149654D01*
X149722219Y-106136866D01*
X149740632Y-106125830D01*
X149760038Y-106116651D01*
X149780250Y-106109419D01*
X149801074Y-106104203D01*
X149822309Y-106101053D01*
X149843750Y-106100000D01*
X150356250Y-106100000D01*
X150377691Y-106101053D01*
G37*
G36*
X150377691Y-104526053D02*
G01*
X150398926Y-104529203D01*
X150419750Y-104534419D01*
X150439962Y-104541651D01*
X150459368Y-104550830D01*
X150477781Y-104561866D01*
X150495024Y-104574654D01*
X150510930Y-104589070D01*
X150525346Y-104604976D01*
X150538134Y-104622219D01*
X150549170Y-104640632D01*
X150558349Y-104660038D01*
X150565581Y-104680250D01*
X150570797Y-104701074D01*
X150573947Y-104722309D01*
X150575000Y-104743750D01*
X150575000Y-105181250D01*
X150573947Y-105202691D01*
X150570797Y-105223926D01*
X150565581Y-105244750D01*
X150558349Y-105264962D01*
X150549170Y-105284368D01*
X150538134Y-105302781D01*
X150525346Y-105320024D01*
X150510930Y-105335930D01*
X150495024Y-105350346D01*
X150477781Y-105363134D01*
X150459368Y-105374170D01*
X150439962Y-105383349D01*
X150419750Y-105390581D01*
X150398926Y-105395797D01*
X150377691Y-105398947D01*
X150356250Y-105400000D01*
X149843750Y-105400000D01*
X149822309Y-105398947D01*
X149801074Y-105395797D01*
X149780250Y-105390581D01*
X149760038Y-105383349D01*
X149740632Y-105374170D01*
X149722219Y-105363134D01*
X149704976Y-105350346D01*
X149689070Y-105335930D01*
X149674654Y-105320024D01*
X149661866Y-105302781D01*
X149650830Y-105284368D01*
X149641651Y-105264962D01*
X149634419Y-105244750D01*
X149629203Y-105223926D01*
X149626053Y-105202691D01*
X149625000Y-105181250D01*
X149625000Y-104743750D01*
X149626053Y-104722309D01*
X149629203Y-104701074D01*
X149634419Y-104680250D01*
X149641651Y-104660038D01*
X149650830Y-104640632D01*
X149661866Y-104622219D01*
X149674654Y-104604976D01*
X149689070Y-104589070D01*
X149704976Y-104574654D01*
X149722219Y-104561866D01*
X149740632Y-104550830D01*
X149760038Y-104541651D01*
X149780250Y-104534419D01*
X149801074Y-104529203D01*
X149822309Y-104526053D01*
X149843750Y-104525000D01*
X150356250Y-104525000D01*
X150377691Y-104526053D01*
G37*
G36*
X152427691Y-104526053D02*
G01*
X152448926Y-104529203D01*
X152469750Y-104534419D01*
X152489962Y-104541651D01*
X152509368Y-104550830D01*
X152527781Y-104561866D01*
X152545024Y-104574654D01*
X152560930Y-104589070D01*
X152575346Y-104604976D01*
X152588134Y-104622219D01*
X152599170Y-104640632D01*
X152608349Y-104660038D01*
X152615581Y-104680250D01*
X152620797Y-104701074D01*
X152623947Y-104722309D01*
X152625000Y-104743750D01*
X152625000Y-105181250D01*
X152623947Y-105202691D01*
X152620797Y-105223926D01*
X152615581Y-105244750D01*
X152608349Y-105264962D01*
X152599170Y-105284368D01*
X152588134Y-105302781D01*
X152575346Y-105320024D01*
X152560930Y-105335930D01*
X152545024Y-105350346D01*
X152527781Y-105363134D01*
X152509368Y-105374170D01*
X152489962Y-105383349D01*
X152469750Y-105390581D01*
X152448926Y-105395797D01*
X152427691Y-105398947D01*
X152406250Y-105400000D01*
X151893750Y-105400000D01*
X151872309Y-105398947D01*
X151851074Y-105395797D01*
X151830250Y-105390581D01*
X151810038Y-105383349D01*
X151790632Y-105374170D01*
X151772219Y-105363134D01*
X151754976Y-105350346D01*
X151739070Y-105335930D01*
X151724654Y-105320024D01*
X151711866Y-105302781D01*
X151700830Y-105284368D01*
X151691651Y-105264962D01*
X151684419Y-105244750D01*
X151679203Y-105223926D01*
X151676053Y-105202691D01*
X151675000Y-105181250D01*
X151675000Y-104743750D01*
X151676053Y-104722309D01*
X151679203Y-104701074D01*
X151684419Y-104680250D01*
X151691651Y-104660038D01*
X151700830Y-104640632D01*
X151711866Y-104622219D01*
X151724654Y-104604976D01*
X151739070Y-104589070D01*
X151754976Y-104574654D01*
X151772219Y-104561866D01*
X151790632Y-104550830D01*
X151810038Y-104541651D01*
X151830250Y-104534419D01*
X151851074Y-104529203D01*
X151872309Y-104526053D01*
X151893750Y-104525000D01*
X152406250Y-104525000D01*
X152427691Y-104526053D01*
G37*
G36*
X152427691Y-106101053D02*
G01*
X152448926Y-106104203D01*
X152469750Y-106109419D01*
X152489962Y-106116651D01*
X152509368Y-106125830D01*
X152527781Y-106136866D01*
X152545024Y-106149654D01*
X152560930Y-106164070D01*
X152575346Y-106179976D01*
X152588134Y-106197219D01*
X152599170Y-106215632D01*
X152608349Y-106235038D01*
X152615581Y-106255250D01*
X152620797Y-106276074D01*
X152623947Y-106297309D01*
X152625000Y-106318750D01*
X152625000Y-106756250D01*
X152623947Y-106777691D01*
X152620797Y-106798926D01*
X152615581Y-106819750D01*
X152608349Y-106839962D01*
X152599170Y-106859368D01*
X152588134Y-106877781D01*
X152575346Y-106895024D01*
X152560930Y-106910930D01*
X152545024Y-106925346D01*
X152527781Y-106938134D01*
X152509368Y-106949170D01*
X152489962Y-106958349D01*
X152469750Y-106965581D01*
X152448926Y-106970797D01*
X152427691Y-106973947D01*
X152406250Y-106975000D01*
X151893750Y-106975000D01*
X151872309Y-106973947D01*
X151851074Y-106970797D01*
X151830250Y-106965581D01*
X151810038Y-106958349D01*
X151790632Y-106949170D01*
X151772219Y-106938134D01*
X151754976Y-106925346D01*
X151739070Y-106910930D01*
X151724654Y-106895024D01*
X151711866Y-106877781D01*
X151700830Y-106859368D01*
X151691651Y-106839962D01*
X151684419Y-106819750D01*
X151679203Y-106798926D01*
X151676053Y-106777691D01*
X151675000Y-106756250D01*
X151675000Y-106318750D01*
X151676053Y-106297309D01*
X151679203Y-106276074D01*
X151684419Y-106255250D01*
X151691651Y-106235038D01*
X151700830Y-106215632D01*
X151711866Y-106197219D01*
X151724654Y-106179976D01*
X151739070Y-106164070D01*
X151754976Y-106149654D01*
X151772219Y-106136866D01*
X151790632Y-106125830D01*
X151810038Y-106116651D01*
X151830250Y-106109419D01*
X151851074Y-106104203D01*
X151872309Y-106101053D01*
X151893750Y-106100000D01*
X152406250Y-106100000D01*
X152427691Y-106101053D01*
G37*
G36*
X155452691Y-103276053D02*
G01*
X155473926Y-103279203D01*
X155494750Y-103284419D01*
X155514962Y-103291651D01*
X155534368Y-103300830D01*
X155552781Y-103311866D01*
X155570024Y-103324654D01*
X155585930Y-103339070D01*
X155600346Y-103354976D01*
X155613134Y-103372219D01*
X155624170Y-103390632D01*
X155633349Y-103410038D01*
X155640581Y-103430250D01*
X155645797Y-103451074D01*
X155648947Y-103472309D01*
X155650000Y-103493750D01*
X155650000Y-104006250D01*
X155648947Y-104027691D01*
X155645797Y-104048926D01*
X155640581Y-104069750D01*
X155633349Y-104089962D01*
X155624170Y-104109368D01*
X155613134Y-104127781D01*
X155600346Y-104145024D01*
X155585930Y-104160930D01*
X155570024Y-104175346D01*
X155552781Y-104188134D01*
X155534368Y-104199170D01*
X155514962Y-104208349D01*
X155494750Y-104215581D01*
X155473926Y-104220797D01*
X155452691Y-104223947D01*
X155431250Y-104225000D01*
X154993750Y-104225000D01*
X154972309Y-104223947D01*
X154951074Y-104220797D01*
X154930250Y-104215581D01*
X154910038Y-104208349D01*
X154890632Y-104199170D01*
X154872219Y-104188134D01*
X154854976Y-104175346D01*
X154839070Y-104160930D01*
X154824654Y-104145024D01*
X154811866Y-104127781D01*
X154800830Y-104109368D01*
X154791651Y-104089962D01*
X154784419Y-104069750D01*
X154779203Y-104048926D01*
X154776053Y-104027691D01*
X154775000Y-104006250D01*
X154775000Y-103493750D01*
X154776053Y-103472309D01*
X154779203Y-103451074D01*
X154784419Y-103430250D01*
X154791651Y-103410038D01*
X154800830Y-103390632D01*
X154811866Y-103372219D01*
X154824654Y-103354976D01*
X154839070Y-103339070D01*
X154854976Y-103324654D01*
X154872219Y-103311866D01*
X154890632Y-103300830D01*
X154910038Y-103291651D01*
X154930250Y-103284419D01*
X154951074Y-103279203D01*
X154972309Y-103276053D01*
X154993750Y-103275000D01*
X155431250Y-103275000D01*
X155452691Y-103276053D01*
G37*
G36*
X157027691Y-103276053D02*
G01*
X157048926Y-103279203D01*
X157069750Y-103284419D01*
X157089962Y-103291651D01*
X157109368Y-103300830D01*
X157127781Y-103311866D01*
X157145024Y-103324654D01*
X157160930Y-103339070D01*
X157175346Y-103354976D01*
X157188134Y-103372219D01*
X157199170Y-103390632D01*
X157208349Y-103410038D01*
X157215581Y-103430250D01*
X157220797Y-103451074D01*
X157223947Y-103472309D01*
X157225000Y-103493750D01*
X157225000Y-104006250D01*
X157223947Y-104027691D01*
X157220797Y-104048926D01*
X157215581Y-104069750D01*
X157208349Y-104089962D01*
X157199170Y-104109368D01*
X157188134Y-104127781D01*
X157175346Y-104145024D01*
X157160930Y-104160930D01*
X157145024Y-104175346D01*
X157127781Y-104188134D01*
X157109368Y-104199170D01*
X157089962Y-104208349D01*
X157069750Y-104215581D01*
X157048926Y-104220797D01*
X157027691Y-104223947D01*
X157006250Y-104225000D01*
X156568750Y-104225000D01*
X156547309Y-104223947D01*
X156526074Y-104220797D01*
X156505250Y-104215581D01*
X156485038Y-104208349D01*
X156465632Y-104199170D01*
X156447219Y-104188134D01*
X156429976Y-104175346D01*
X156414070Y-104160930D01*
X156399654Y-104145024D01*
X156386866Y-104127781D01*
X156375830Y-104109368D01*
X156366651Y-104089962D01*
X156359419Y-104069750D01*
X156354203Y-104048926D01*
X156351053Y-104027691D01*
X156350000Y-104006250D01*
X156350000Y-103493750D01*
X156351053Y-103472309D01*
X156354203Y-103451074D01*
X156359419Y-103430250D01*
X156366651Y-103410038D01*
X156375830Y-103390632D01*
X156386866Y-103372219D01*
X156399654Y-103354976D01*
X156414070Y-103339070D01*
X156429976Y-103324654D01*
X156447219Y-103311866D01*
X156465632Y-103300830D01*
X156485038Y-103291651D01*
X156505250Y-103284419D01*
X156526074Y-103279203D01*
X156547309Y-103276053D01*
X156568750Y-103275000D01*
X157006250Y-103275000D01*
X157027691Y-103276053D01*
G37*
G36*
X155452691Y-101276053D02*
G01*
X155473926Y-101279203D01*
X155494750Y-101284419D01*
X155514962Y-101291651D01*
X155534368Y-101300830D01*
X155552781Y-101311866D01*
X155570024Y-101324654D01*
X155585930Y-101339070D01*
X155600346Y-101354976D01*
X155613134Y-101372219D01*
X155624170Y-101390632D01*
X155633349Y-101410038D01*
X155640581Y-101430250D01*
X155645797Y-101451074D01*
X155648947Y-101472309D01*
X155650000Y-101493750D01*
X155650000Y-102006250D01*
X155648947Y-102027691D01*
X155645797Y-102048926D01*
X155640581Y-102069750D01*
X155633349Y-102089962D01*
X155624170Y-102109368D01*
X155613134Y-102127781D01*
X155600346Y-102145024D01*
X155585930Y-102160930D01*
X155570024Y-102175346D01*
X155552781Y-102188134D01*
X155534368Y-102199170D01*
X155514962Y-102208349D01*
X155494750Y-102215581D01*
X155473926Y-102220797D01*
X155452691Y-102223947D01*
X155431250Y-102225000D01*
X154993750Y-102225000D01*
X154972309Y-102223947D01*
X154951074Y-102220797D01*
X154930250Y-102215581D01*
X154910038Y-102208349D01*
X154890632Y-102199170D01*
X154872219Y-102188134D01*
X154854976Y-102175346D01*
X154839070Y-102160930D01*
X154824654Y-102145024D01*
X154811866Y-102127781D01*
X154800830Y-102109368D01*
X154791651Y-102089962D01*
X154784419Y-102069750D01*
X154779203Y-102048926D01*
X154776053Y-102027691D01*
X154775000Y-102006250D01*
X154775000Y-101493750D01*
X154776053Y-101472309D01*
X154779203Y-101451074D01*
X154784419Y-101430250D01*
X154791651Y-101410038D01*
X154800830Y-101390632D01*
X154811866Y-101372219D01*
X154824654Y-101354976D01*
X154839070Y-101339070D01*
X154854976Y-101324654D01*
X154872219Y-101311866D01*
X154890632Y-101300830D01*
X154910038Y-101291651D01*
X154930250Y-101284419D01*
X154951074Y-101279203D01*
X154972309Y-101276053D01*
X154993750Y-101275000D01*
X155431250Y-101275000D01*
X155452691Y-101276053D01*
G37*
G36*
X157027691Y-101276053D02*
G01*
X157048926Y-101279203D01*
X157069750Y-101284419D01*
X157089962Y-101291651D01*
X157109368Y-101300830D01*
X157127781Y-101311866D01*
X157145024Y-101324654D01*
X157160930Y-101339070D01*
X157175346Y-101354976D01*
X157188134Y-101372219D01*
X157199170Y-101390632D01*
X157208349Y-101410038D01*
X157215581Y-101430250D01*
X157220797Y-101451074D01*
X157223947Y-101472309D01*
X157225000Y-101493750D01*
X157225000Y-102006250D01*
X157223947Y-102027691D01*
X157220797Y-102048926D01*
X157215581Y-102069750D01*
X157208349Y-102089962D01*
X157199170Y-102109368D01*
X157188134Y-102127781D01*
X157175346Y-102145024D01*
X157160930Y-102160930D01*
X157145024Y-102175346D01*
X157127781Y-102188134D01*
X157109368Y-102199170D01*
X157089962Y-102208349D01*
X157069750Y-102215581D01*
X157048926Y-102220797D01*
X157027691Y-102223947D01*
X157006250Y-102225000D01*
X156568750Y-102225000D01*
X156547309Y-102223947D01*
X156526074Y-102220797D01*
X156505250Y-102215581D01*
X156485038Y-102208349D01*
X156465632Y-102199170D01*
X156447219Y-102188134D01*
X156429976Y-102175346D01*
X156414070Y-102160930D01*
X156399654Y-102145024D01*
X156386866Y-102127781D01*
X156375830Y-102109368D01*
X156366651Y-102089962D01*
X156359419Y-102069750D01*
X156354203Y-102048926D01*
X156351053Y-102027691D01*
X156350000Y-102006250D01*
X156350000Y-101493750D01*
X156351053Y-101472309D01*
X156354203Y-101451074D01*
X156359419Y-101430250D01*
X156366651Y-101410038D01*
X156375830Y-101390632D01*
X156386866Y-101372219D01*
X156399654Y-101354976D01*
X156414070Y-101339070D01*
X156429976Y-101324654D01*
X156447219Y-101311866D01*
X156465632Y-101300830D01*
X156485038Y-101291651D01*
X156505250Y-101284419D01*
X156526074Y-101279203D01*
X156547309Y-101276053D01*
X156568750Y-101275000D01*
X157006250Y-101275000D01*
X157027691Y-101276053D01*
G37*
G36*
X148227691Y-106101053D02*
G01*
X148248926Y-106104203D01*
X148269750Y-106109419D01*
X148289962Y-106116651D01*
X148309368Y-106125830D01*
X148327781Y-106136866D01*
X148345024Y-106149654D01*
X148360930Y-106164070D01*
X148375346Y-106179976D01*
X148388134Y-106197219D01*
X148399170Y-106215632D01*
X148408349Y-106235038D01*
X148415581Y-106255250D01*
X148420797Y-106276074D01*
X148423947Y-106297309D01*
X148425000Y-106318750D01*
X148425000Y-106756250D01*
X148423947Y-106777691D01*
X148420797Y-106798926D01*
X148415581Y-106819750D01*
X148408349Y-106839962D01*
X148399170Y-106859368D01*
X148388134Y-106877781D01*
X148375346Y-106895024D01*
X148360930Y-106910930D01*
X148345024Y-106925346D01*
X148327781Y-106938134D01*
X148309368Y-106949170D01*
X148289962Y-106958349D01*
X148269750Y-106965581D01*
X148248926Y-106970797D01*
X148227691Y-106973947D01*
X148206250Y-106975000D01*
X147693750Y-106975000D01*
X147672309Y-106973947D01*
X147651074Y-106970797D01*
X147630250Y-106965581D01*
X147610038Y-106958349D01*
X147590632Y-106949170D01*
X147572219Y-106938134D01*
X147554976Y-106925346D01*
X147539070Y-106910930D01*
X147524654Y-106895024D01*
X147511866Y-106877781D01*
X147500830Y-106859368D01*
X147491651Y-106839962D01*
X147484419Y-106819750D01*
X147479203Y-106798926D01*
X147476053Y-106777691D01*
X147475000Y-106756250D01*
X147475000Y-106318750D01*
X147476053Y-106297309D01*
X147479203Y-106276074D01*
X147484419Y-106255250D01*
X147491651Y-106235038D01*
X147500830Y-106215632D01*
X147511866Y-106197219D01*
X147524654Y-106179976D01*
X147539070Y-106164070D01*
X147554976Y-106149654D01*
X147572219Y-106136866D01*
X147590632Y-106125830D01*
X147610038Y-106116651D01*
X147630250Y-106109419D01*
X147651074Y-106104203D01*
X147672309Y-106101053D01*
X147693750Y-106100000D01*
X148206250Y-106100000D01*
X148227691Y-106101053D01*
G37*
G36*
X148227691Y-104526053D02*
G01*
X148248926Y-104529203D01*
X148269750Y-104534419D01*
X148289962Y-104541651D01*
X148309368Y-104550830D01*
X148327781Y-104561866D01*
X148345024Y-104574654D01*
X148360930Y-104589070D01*
X148375346Y-104604976D01*
X148388134Y-104622219D01*
X148399170Y-104640632D01*
X148408349Y-104660038D01*
X148415581Y-104680250D01*
X148420797Y-104701074D01*
X148423947Y-104722309D01*
X148425000Y-104743750D01*
X148425000Y-105181250D01*
X148423947Y-105202691D01*
X148420797Y-105223926D01*
X148415581Y-105244750D01*
X148408349Y-105264962D01*
X148399170Y-105284368D01*
X148388134Y-105302781D01*
X148375346Y-105320024D01*
X148360930Y-105335930D01*
X148345024Y-105350346D01*
X148327781Y-105363134D01*
X148309368Y-105374170D01*
X148289962Y-105383349D01*
X148269750Y-105390581D01*
X148248926Y-105395797D01*
X148227691Y-105398947D01*
X148206250Y-105400000D01*
X147693750Y-105400000D01*
X147672309Y-105398947D01*
X147651074Y-105395797D01*
X147630250Y-105390581D01*
X147610038Y-105383349D01*
X147590632Y-105374170D01*
X147572219Y-105363134D01*
X147554976Y-105350346D01*
X147539070Y-105335930D01*
X147524654Y-105320024D01*
X147511866Y-105302781D01*
X147500830Y-105284368D01*
X147491651Y-105264962D01*
X147484419Y-105244750D01*
X147479203Y-105223926D01*
X147476053Y-105202691D01*
X147475000Y-105181250D01*
X147475000Y-104743750D01*
X147476053Y-104722309D01*
X147479203Y-104701074D01*
X147484419Y-104680250D01*
X147491651Y-104660038D01*
X147500830Y-104640632D01*
X147511866Y-104622219D01*
X147524654Y-104604976D01*
X147539070Y-104589070D01*
X147554976Y-104574654D01*
X147572219Y-104561866D01*
X147590632Y-104550830D01*
X147610038Y-104541651D01*
X147630250Y-104534419D01*
X147651074Y-104529203D01*
X147672309Y-104526053D01*
X147693750Y-104525000D01*
X148206250Y-104525000D01*
X148227691Y-104526053D01*
G37*
G36*
X143502691Y-103376053D02*
G01*
X143523926Y-103379203D01*
X143544750Y-103384419D01*
X143564962Y-103391651D01*
X143584368Y-103400830D01*
X143602781Y-103411866D01*
X143620024Y-103424654D01*
X143635930Y-103439070D01*
X143650346Y-103454976D01*
X143663134Y-103472219D01*
X143674170Y-103490632D01*
X143683349Y-103510038D01*
X143690581Y-103530250D01*
X143695797Y-103551074D01*
X143698947Y-103572309D01*
X143700000Y-103593750D01*
X143700000Y-104106250D01*
X143698947Y-104127691D01*
X143695797Y-104148926D01*
X143690581Y-104169750D01*
X143683349Y-104189962D01*
X143674170Y-104209368D01*
X143663134Y-104227781D01*
X143650346Y-104245024D01*
X143635930Y-104260930D01*
X143620024Y-104275346D01*
X143602781Y-104288134D01*
X143584368Y-104299170D01*
X143564962Y-104308349D01*
X143544750Y-104315581D01*
X143523926Y-104320797D01*
X143502691Y-104323947D01*
X143481250Y-104325000D01*
X143043750Y-104325000D01*
X143022309Y-104323947D01*
X143001074Y-104320797D01*
X142980250Y-104315581D01*
X142960038Y-104308349D01*
X142940632Y-104299170D01*
X142922219Y-104288134D01*
X142904976Y-104275346D01*
X142889070Y-104260930D01*
X142874654Y-104245024D01*
X142861866Y-104227781D01*
X142850830Y-104209368D01*
X142841651Y-104189962D01*
X142834419Y-104169750D01*
X142829203Y-104148926D01*
X142826053Y-104127691D01*
X142825000Y-104106250D01*
X142825000Y-103593750D01*
X142826053Y-103572309D01*
X142829203Y-103551074D01*
X142834419Y-103530250D01*
X142841651Y-103510038D01*
X142850830Y-103490632D01*
X142861866Y-103472219D01*
X142874654Y-103454976D01*
X142889070Y-103439070D01*
X142904976Y-103424654D01*
X142922219Y-103411866D01*
X142940632Y-103400830D01*
X142960038Y-103391651D01*
X142980250Y-103384419D01*
X143001074Y-103379203D01*
X143022309Y-103376053D01*
X143043750Y-103375000D01*
X143481250Y-103375000D01*
X143502691Y-103376053D01*
G37*
G36*
X145077691Y-103376053D02*
G01*
X145098926Y-103379203D01*
X145119750Y-103384419D01*
X145139962Y-103391651D01*
X145159368Y-103400830D01*
X145177781Y-103411866D01*
X145195024Y-103424654D01*
X145210930Y-103439070D01*
X145225346Y-103454976D01*
X145238134Y-103472219D01*
X145249170Y-103490632D01*
X145258349Y-103510038D01*
X145265581Y-103530250D01*
X145270797Y-103551074D01*
X145273947Y-103572309D01*
X145275000Y-103593750D01*
X145275000Y-104106250D01*
X145273947Y-104127691D01*
X145270797Y-104148926D01*
X145265581Y-104169750D01*
X145258349Y-104189962D01*
X145249170Y-104209368D01*
X145238134Y-104227781D01*
X145225346Y-104245024D01*
X145210930Y-104260930D01*
X145195024Y-104275346D01*
X145177781Y-104288134D01*
X145159368Y-104299170D01*
X145139962Y-104308349D01*
X145119750Y-104315581D01*
X145098926Y-104320797D01*
X145077691Y-104323947D01*
X145056250Y-104325000D01*
X144618750Y-104325000D01*
X144597309Y-104323947D01*
X144576074Y-104320797D01*
X144555250Y-104315581D01*
X144535038Y-104308349D01*
X144515632Y-104299170D01*
X144497219Y-104288134D01*
X144479976Y-104275346D01*
X144464070Y-104260930D01*
X144449654Y-104245024D01*
X144436866Y-104227781D01*
X144425830Y-104209368D01*
X144416651Y-104189962D01*
X144409419Y-104169750D01*
X144404203Y-104148926D01*
X144401053Y-104127691D01*
X144400000Y-104106250D01*
X144400000Y-103593750D01*
X144401053Y-103572309D01*
X144404203Y-103551074D01*
X144409419Y-103530250D01*
X144416651Y-103510038D01*
X144425830Y-103490632D01*
X144436866Y-103472219D01*
X144449654Y-103454976D01*
X144464070Y-103439070D01*
X144479976Y-103424654D01*
X144497219Y-103411866D01*
X144515632Y-103400830D01*
X144535038Y-103391651D01*
X144555250Y-103384419D01*
X144576074Y-103379203D01*
X144597309Y-103376053D01*
X144618750Y-103375000D01*
X145056250Y-103375000D01*
X145077691Y-103376053D01*
G37*
G36*
X145077691Y-101326053D02*
G01*
X145098926Y-101329203D01*
X145119750Y-101334419D01*
X145139962Y-101341651D01*
X145159368Y-101350830D01*
X145177781Y-101361866D01*
X145195024Y-101374654D01*
X145210930Y-101389070D01*
X145225346Y-101404976D01*
X145238134Y-101422219D01*
X145249170Y-101440632D01*
X145258349Y-101460038D01*
X145265581Y-101480250D01*
X145270797Y-101501074D01*
X145273947Y-101522309D01*
X145275000Y-101543750D01*
X145275000Y-102056250D01*
X145273947Y-102077691D01*
X145270797Y-102098926D01*
X145265581Y-102119750D01*
X145258349Y-102139962D01*
X145249170Y-102159368D01*
X145238134Y-102177781D01*
X145225346Y-102195024D01*
X145210930Y-102210930D01*
X145195024Y-102225346D01*
X145177781Y-102238134D01*
X145159368Y-102249170D01*
X145139962Y-102258349D01*
X145119750Y-102265581D01*
X145098926Y-102270797D01*
X145077691Y-102273947D01*
X145056250Y-102275000D01*
X144618750Y-102275000D01*
X144597309Y-102273947D01*
X144576074Y-102270797D01*
X144555250Y-102265581D01*
X144535038Y-102258349D01*
X144515632Y-102249170D01*
X144497219Y-102238134D01*
X144479976Y-102225346D01*
X144464070Y-102210930D01*
X144449654Y-102195024D01*
X144436866Y-102177781D01*
X144425830Y-102159368D01*
X144416651Y-102139962D01*
X144409419Y-102119750D01*
X144404203Y-102098926D01*
X144401053Y-102077691D01*
X144400000Y-102056250D01*
X144400000Y-101543750D01*
X144401053Y-101522309D01*
X144404203Y-101501074D01*
X144409419Y-101480250D01*
X144416651Y-101460038D01*
X144425830Y-101440632D01*
X144436866Y-101422219D01*
X144449654Y-101404976D01*
X144464070Y-101389070D01*
X144479976Y-101374654D01*
X144497219Y-101361866D01*
X144515632Y-101350830D01*
X144535038Y-101341651D01*
X144555250Y-101334419D01*
X144576074Y-101329203D01*
X144597309Y-101326053D01*
X144618750Y-101325000D01*
X145056250Y-101325000D01*
X145077691Y-101326053D01*
G37*
G36*
X143502691Y-101326053D02*
G01*
X143523926Y-101329203D01*
X143544750Y-101334419D01*
X143564962Y-101341651D01*
X143584368Y-101350830D01*
X143602781Y-101361866D01*
X143620024Y-101374654D01*
X143635930Y-101389070D01*
X143650346Y-101404976D01*
X143663134Y-101422219D01*
X143674170Y-101440632D01*
X143683349Y-101460038D01*
X143690581Y-101480250D01*
X143695797Y-101501074D01*
X143698947Y-101522309D01*
X143700000Y-101543750D01*
X143700000Y-102056250D01*
X143698947Y-102077691D01*
X143695797Y-102098926D01*
X143690581Y-102119750D01*
X143683349Y-102139962D01*
X143674170Y-102159368D01*
X143663134Y-102177781D01*
X143650346Y-102195024D01*
X143635930Y-102210930D01*
X143620024Y-102225346D01*
X143602781Y-102238134D01*
X143584368Y-102249170D01*
X143564962Y-102258349D01*
X143544750Y-102265581D01*
X143523926Y-102270797D01*
X143502691Y-102273947D01*
X143481250Y-102275000D01*
X143043750Y-102275000D01*
X143022309Y-102273947D01*
X143001074Y-102270797D01*
X142980250Y-102265581D01*
X142960038Y-102258349D01*
X142940632Y-102249170D01*
X142922219Y-102238134D01*
X142904976Y-102225346D01*
X142889070Y-102210930D01*
X142874654Y-102195024D01*
X142861866Y-102177781D01*
X142850830Y-102159368D01*
X142841651Y-102139962D01*
X142834419Y-102119750D01*
X142829203Y-102098926D01*
X142826053Y-102077691D01*
X142825000Y-102056250D01*
X142825000Y-101543750D01*
X142826053Y-101522309D01*
X142829203Y-101501074D01*
X142834419Y-101480250D01*
X142841651Y-101460038D01*
X142850830Y-101440632D01*
X142861866Y-101422219D01*
X142874654Y-101404976D01*
X142889070Y-101389070D01*
X142904976Y-101374654D01*
X142922219Y-101361866D01*
X142940632Y-101350830D01*
X142960038Y-101341651D01*
X142980250Y-101334419D01*
X143001074Y-101329203D01*
X143022309Y-101326053D01*
X143043750Y-101325000D01*
X143481250Y-101325000D01*
X143502691Y-101326053D01*
G37*
G36*
X143502691Y-99326053D02*
G01*
X143523926Y-99329203D01*
X143544750Y-99334419D01*
X143564962Y-99341651D01*
X143584368Y-99350830D01*
X143602781Y-99361866D01*
X143620024Y-99374654D01*
X143635930Y-99389070D01*
X143650346Y-99404976D01*
X143663134Y-99422219D01*
X143674170Y-99440632D01*
X143683349Y-99460038D01*
X143690581Y-99480250D01*
X143695797Y-99501074D01*
X143698947Y-99522309D01*
X143700000Y-99543750D01*
X143700000Y-100056250D01*
X143698947Y-100077691D01*
X143695797Y-100098926D01*
X143690581Y-100119750D01*
X143683349Y-100139962D01*
X143674170Y-100159368D01*
X143663134Y-100177781D01*
X143650346Y-100195024D01*
X143635930Y-100210930D01*
X143620024Y-100225346D01*
X143602781Y-100238134D01*
X143584368Y-100249170D01*
X143564962Y-100258349D01*
X143544750Y-100265581D01*
X143523926Y-100270797D01*
X143502691Y-100273947D01*
X143481250Y-100275000D01*
X143043750Y-100275000D01*
X143022309Y-100273947D01*
X143001074Y-100270797D01*
X142980250Y-100265581D01*
X142960038Y-100258349D01*
X142940632Y-100249170D01*
X142922219Y-100238134D01*
X142904976Y-100225346D01*
X142889070Y-100210930D01*
X142874654Y-100195024D01*
X142861866Y-100177781D01*
X142850830Y-100159368D01*
X142841651Y-100139962D01*
X142834419Y-100119750D01*
X142829203Y-100098926D01*
X142826053Y-100077691D01*
X142825000Y-100056250D01*
X142825000Y-99543750D01*
X142826053Y-99522309D01*
X142829203Y-99501074D01*
X142834419Y-99480250D01*
X142841651Y-99460038D01*
X142850830Y-99440632D01*
X142861866Y-99422219D01*
X142874654Y-99404976D01*
X142889070Y-99389070D01*
X142904976Y-99374654D01*
X142922219Y-99361866D01*
X142940632Y-99350830D01*
X142960038Y-99341651D01*
X142980250Y-99334419D01*
X143001074Y-99329203D01*
X143022309Y-99326053D01*
X143043750Y-99325000D01*
X143481250Y-99325000D01*
X143502691Y-99326053D01*
G37*
G36*
X145077691Y-99326053D02*
G01*
X145098926Y-99329203D01*
X145119750Y-99334419D01*
X145139962Y-99341651D01*
X145159368Y-99350830D01*
X145177781Y-99361866D01*
X145195024Y-99374654D01*
X145210930Y-99389070D01*
X145225346Y-99404976D01*
X145238134Y-99422219D01*
X145249170Y-99440632D01*
X145258349Y-99460038D01*
X145265581Y-99480250D01*
X145270797Y-99501074D01*
X145273947Y-99522309D01*
X145275000Y-99543750D01*
X145275000Y-100056250D01*
X145273947Y-100077691D01*
X145270797Y-100098926D01*
X145265581Y-100119750D01*
X145258349Y-100139962D01*
X145249170Y-100159368D01*
X145238134Y-100177781D01*
X145225346Y-100195024D01*
X145210930Y-100210930D01*
X145195024Y-100225346D01*
X145177781Y-100238134D01*
X145159368Y-100249170D01*
X145139962Y-100258349D01*
X145119750Y-100265581D01*
X145098926Y-100270797D01*
X145077691Y-100273947D01*
X145056250Y-100275000D01*
X144618750Y-100275000D01*
X144597309Y-100273947D01*
X144576074Y-100270797D01*
X144555250Y-100265581D01*
X144535038Y-100258349D01*
X144515632Y-100249170D01*
X144497219Y-100238134D01*
X144479976Y-100225346D01*
X144464070Y-100210930D01*
X144449654Y-100195024D01*
X144436866Y-100177781D01*
X144425830Y-100159368D01*
X144416651Y-100139962D01*
X144409419Y-100119750D01*
X144404203Y-100098926D01*
X144401053Y-100077691D01*
X144400000Y-100056250D01*
X144400000Y-99543750D01*
X144401053Y-99522309D01*
X144404203Y-99501074D01*
X144409419Y-99480250D01*
X144416651Y-99460038D01*
X144425830Y-99440632D01*
X144436866Y-99422219D01*
X144449654Y-99404976D01*
X144464070Y-99389070D01*
X144479976Y-99374654D01*
X144497219Y-99361866D01*
X144515632Y-99350830D01*
X144535038Y-99341651D01*
X144555250Y-99334419D01*
X144576074Y-99329203D01*
X144597309Y-99326053D01*
X144618750Y-99325000D01*
X145056250Y-99325000D01*
X145077691Y-99326053D01*
G37*
M02*
